<?xml version="1.0" encoding="utf-8" standalone="no"?>
<!DOCTYPE svg PUBLIC "-//W3C//DTD SVG 1.1//EN"
  "http://www.w3.org/Graphics/SVG/1.1/DTD/svg11.dtd">
<!-- Created with matplotlib (http://matplotlib.org/) -->
<svg height="519pt" version="1.1" viewBox="0 0 633 519" width="633pt" xmlns="http://www.w3.org/2000/svg" xmlns:xlink="http://www.w3.org/1999/xlink">
 <defs>
  <style type="text/css">
*{stroke-linecap:butt;stroke-linejoin:round;}
  </style>
 </defs>
 <g id="figure_1">
  <g id="patch_1">
   <path d="
M0 519.854
L633.6 519.854
L633.6 0
L0 0
z
" style="fill:none;"/>
  </g>
  <g id="axes_1">
   <g id="patch_2">
    <path d="
M93.6 404.64
L540 404.64
L540 93.6
L93.6 93.6
z
" style="fill:none;"/>
   </g>
   <g id="patch_3">
    <path d="
M93.6 93.6
L540 93.6" style="fill:none;stroke:#000000;stroke-linecap:square;stroke-linejoin:miter;"/>
   </g>
   <g id="patch_4">
    <path d="
M540 404.64
L540 93.6" style="fill:none;stroke:#000000;stroke-linecap:square;stroke-linejoin:miter;"/>
   </g>
   <g id="patch_5">
    <path d="
M93.6 404.64
L540 404.64" style="fill:none;stroke:#000000;stroke-linecap:square;stroke-linejoin:miter;"/>
   </g>
   <g id="patch_6">
    <path d="
M93.6 404.64
L93.6 93.6" style="fill:none;stroke:#000000;stroke-linecap:square;stroke-linejoin:miter;"/>
   </g>
   <g id="matplotlib.axis_1">
    <g id="xtick_1">
     <g id="line2d_1">
      <defs>
       <path d="
M0 0
L0 0" id="m48243eeccc" style="stroke:#000000;stroke-width:0.5;"/>
      </defs>
      <g>
       <use style="stroke:#000000;stroke-width:0.5;" x="93.6" xlink:href="#m48243eeccc" y="93.6"/>
      </g>
     </g>
    </g>
    <g id="xtick_2">
     <g id="line2d_2">
      <g>
       <use style="stroke:#000000;stroke-width:0.5;" x="114.857142857" xlink:href="#m48243eeccc" y="93.6"/>
      </g>
     </g>
    </g>
    <g id="xtick_3">
     <g id="line2d_3">
      <g>
       <use style="stroke:#000000;stroke-width:0.5;" x="136.114285714" xlink:href="#m48243eeccc" y="93.6"/>
      </g>
     </g>
    </g>
    <g id="xtick_4">
     <g id="line2d_4">
      <g>
       <use style="stroke:#000000;stroke-width:0.5;" x="157.371428571" xlink:href="#m48243eeccc" y="93.6"/>
      </g>
     </g>
    </g>
    <g id="xtick_5">
     <g id="line2d_5">
      <g>
       <use style="stroke:#000000;stroke-width:0.5;" x="178.628571429" xlink:href="#m48243eeccc" y="93.6"/>
      </g>
     </g>
    </g>
    <g id="xtick_6">
     <g id="line2d_6">
      <g>
       <use style="stroke:#000000;stroke-width:0.5;" x="199.885714286" xlink:href="#m48243eeccc" y="93.6"/>
      </g>
     </g>
    </g>
    <g id="xtick_7">
     <g id="line2d_7">
      <g>
       <use style="stroke:#000000;stroke-width:0.5;" x="221.142857143" xlink:href="#m48243eeccc" y="93.6"/>
      </g>
     </g>
    </g>
    <g id="xtick_8">
     <g id="line2d_8">
      <g>
       <use style="stroke:#000000;stroke-width:0.5;" x="242.4" xlink:href="#m48243eeccc" y="93.6"/>
      </g>
     </g>
    </g>
    <g id="xtick_9">
     <g id="line2d_9">
      <g>
       <use style="stroke:#000000;stroke-width:0.5;" x="263.657142857" xlink:href="#m48243eeccc" y="93.6"/>
      </g>
     </g>
    </g>
    <g id="xtick_10">
     <g id="line2d_10">
      <g>
       <use style="stroke:#000000;stroke-width:0.5;" x="284.914285714" xlink:href="#m48243eeccc" y="93.6"/>
      </g>
     </g>
    </g>
    <g id="xtick_11">
     <g id="line2d_11">
      <g>
       <use style="stroke:#000000;stroke-width:0.5;" x="306.171428571" xlink:href="#m48243eeccc" y="93.6"/>
      </g>
     </g>
    </g>
    <g id="xtick_12">
     <g id="line2d_12">
      <g>
       <use style="stroke:#000000;stroke-width:0.5;" x="327.428571429" xlink:href="#m48243eeccc" y="93.6"/>
      </g>
     </g>
    </g>
    <g id="xtick_13">
     <g id="line2d_13">
      <g>
       <use style="stroke:#000000;stroke-width:0.5;" x="348.685714286" xlink:href="#m48243eeccc" y="93.6"/>
      </g>
     </g>
    </g>
    <g id="xtick_14">
     <g id="line2d_14">
      <g>
       <use style="stroke:#000000;stroke-width:0.5;" x="369.942857143" xlink:href="#m48243eeccc" y="93.6"/>
      </g>
     </g>
    </g>
    <g id="xtick_15">
     <g id="line2d_15">
      <g>
       <use style="stroke:#000000;stroke-width:0.5;" x="391.2" xlink:href="#m48243eeccc" y="93.6"/>
      </g>
     </g>
    </g>
    <g id="xtick_16">
     <g id="line2d_16">
      <g>
       <use style="stroke:#000000;stroke-width:0.5;" x="412.457142857" xlink:href="#m48243eeccc" y="93.6"/>
      </g>
     </g>
    </g>
    <g id="xtick_17">
     <g id="line2d_17">
      <g>
       <use style="stroke:#000000;stroke-width:0.5;" x="433.714285714" xlink:href="#m48243eeccc" y="93.6"/>
      </g>
     </g>
    </g>
    <g id="xtick_18">
     <g id="line2d_18">
      <g>
       <use style="stroke:#000000;stroke-width:0.5;" x="454.971428571" xlink:href="#m48243eeccc" y="93.6"/>
      </g>
     </g>
    </g>
    <g id="xtick_19">
     <g id="line2d_19">
      <g>
       <use style="stroke:#000000;stroke-width:0.5;" x="476.228571429" xlink:href="#m48243eeccc" y="93.6"/>
      </g>
     </g>
    </g>
    <g id="xtick_20">
     <g id="line2d_20">
      <g>
       <use style="stroke:#000000;stroke-width:0.5;" x="497.485714286" xlink:href="#m48243eeccc" y="93.6"/>
      </g>
     </g>
    </g>
    <g id="xtick_21">
     <g id="line2d_21">
      <g>
       <use style="stroke:#000000;stroke-width:0.5;" x="518.742857143" xlink:href="#m48243eeccc" y="93.6"/>
      </g>
     </g>
    </g>
    <g id="xtick_22">
     <g id="line2d_22">
      <g>
       <use style="stroke:#000000;stroke-width:0.5;" x="540.0" xlink:href="#m48243eeccc" y="93.6"/>
      </g>
     </g>
    </g>
    <g id="xtick_23">
     <g id="line2d_23">
      <defs>
       <path d="
M0 0
L0 -7.68" id="m78233812af" style="stroke:#b2b2b2;stroke-width:0.5;"/>
      </defs>
      <g>
       <use style="fill:#b2b2b2;stroke:#b2b2b2;stroke-width:0.5;" x="104.228571429" xlink:href="#m78233812af" y="93.6"/>
      </g>
     </g>
    </g>
    <g id="xtick_24">
     <g id="line2d_24">
      <g>
       <use style="fill:#b2b2b2;stroke:#b2b2b2;stroke-width:0.5;" x="125.485714286" xlink:href="#m78233812af" y="93.6"/>
      </g>
     </g>
    </g>
    <g id="xtick_25">
     <g id="line2d_25">
      <g>
       <use style="fill:#b2b2b2;stroke:#b2b2b2;stroke-width:0.5;" x="146.742857143" xlink:href="#m78233812af" y="93.6"/>
      </g>
     </g>
    </g>
    <g id="xtick_26">
     <g id="line2d_26">
      <g>
       <use style="fill:#b2b2b2;stroke:#b2b2b2;stroke-width:0.5;" x="168.0" xlink:href="#m78233812af" y="93.6"/>
      </g>
     </g>
    </g>
    <g id="xtick_27">
     <g id="line2d_27">
      <g>
       <use style="fill:#b2b2b2;stroke:#b2b2b2;stroke-width:0.5;" x="189.257142857" xlink:href="#m78233812af" y="93.6"/>
      </g>
     </g>
    </g>
    <g id="xtick_28">
     <g id="line2d_28">
      <g>
       <use style="fill:#b2b2b2;stroke:#b2b2b2;stroke-width:0.5;" x="210.514285714" xlink:href="#m78233812af" y="93.6"/>
      </g>
     </g>
    </g>
    <g id="xtick_29">
     <g id="line2d_29">
      <g>
       <use style="fill:#b2b2b2;stroke:#b2b2b2;stroke-width:0.5;" x="231.771428571" xlink:href="#m78233812af" y="93.6"/>
      </g>
     </g>
    </g>
    <g id="xtick_30">
     <g id="line2d_30">
      <g>
       <use style="fill:#b2b2b2;stroke:#b2b2b2;stroke-width:0.5;" x="253.028571429" xlink:href="#m78233812af" y="93.6"/>
      </g>
     </g>
    </g>
    <g id="xtick_31">
     <g id="line2d_31">
      <g>
       <use style="fill:#b2b2b2;stroke:#b2b2b2;stroke-width:0.5;" x="274.285714286" xlink:href="#m78233812af" y="93.6"/>
      </g>
     </g>
    </g>
    <g id="xtick_32">
     <g id="line2d_32">
      <g>
       <use style="fill:#b2b2b2;stroke:#b2b2b2;stroke-width:0.5;" x="295.542857143" xlink:href="#m78233812af" y="93.6"/>
      </g>
     </g>
    </g>
    <g id="xtick_33">
     <g id="line2d_33">
      <g>
       <use style="fill:#b2b2b2;stroke:#b2b2b2;stroke-width:0.5;" x="316.8" xlink:href="#m78233812af" y="93.6"/>
      </g>
     </g>
    </g>
    <g id="xtick_34">
     <g id="line2d_34">
      <g>
       <use style="fill:#b2b2b2;stroke:#b2b2b2;stroke-width:0.5;" x="338.057142857" xlink:href="#m78233812af" y="93.6"/>
      </g>
     </g>
    </g>
    <g id="xtick_35">
     <g id="line2d_35">
      <g>
       <use style="fill:#b2b2b2;stroke:#b2b2b2;stroke-width:0.5;" x="359.314285714" xlink:href="#m78233812af" y="93.6"/>
      </g>
     </g>
    </g>
    <g id="xtick_36">
     <g id="line2d_36">
      <g>
       <use style="fill:#b2b2b2;stroke:#b2b2b2;stroke-width:0.5;" x="380.571428571" xlink:href="#m78233812af" y="93.6"/>
      </g>
     </g>
    </g>
    <g id="xtick_37">
     <g id="line2d_37">
      <g>
       <use style="fill:#b2b2b2;stroke:#b2b2b2;stroke-width:0.5;" x="401.828571429" xlink:href="#m78233812af" y="93.6"/>
      </g>
     </g>
    </g>
    <g id="xtick_38">
     <g id="line2d_38">
      <g>
       <use style="fill:#b2b2b2;stroke:#b2b2b2;stroke-width:0.5;" x="423.085714286" xlink:href="#m78233812af" y="93.6"/>
      </g>
     </g>
    </g>
    <g id="xtick_39">
     <g id="line2d_39">
      <g>
       <use style="fill:#b2b2b2;stroke:#b2b2b2;stroke-width:0.5;" x="444.342857143" xlink:href="#m78233812af" y="93.6"/>
      </g>
     </g>
    </g>
    <g id="xtick_40">
     <g id="line2d_40">
      <g>
       <use style="fill:#b2b2b2;stroke:#b2b2b2;stroke-width:0.5;" x="465.6" xlink:href="#m78233812af" y="93.6"/>
      </g>
     </g>
    </g>
    <g id="xtick_41">
     <g id="line2d_41">
      <g>
       <use style="fill:#b2b2b2;stroke:#b2b2b2;stroke-width:0.5;" x="486.857142857" xlink:href="#m78233812af" y="93.6"/>
      </g>
     </g>
    </g>
    <g id="xtick_42">
     <g id="line2d_42">
      <g>
       <use style="fill:#b2b2b2;stroke:#b2b2b2;stroke-width:0.5;" x="508.114285714" xlink:href="#m78233812af" y="93.6"/>
      </g>
     </g>
    </g>
    <g id="xtick_43">
     <g id="line2d_43">
      <g>
       <use style="fill:#b2b2b2;stroke:#b2b2b2;stroke-width:0.5;" x="529.371428571" xlink:href="#m78233812af" y="93.6"/>
      </g>
     </g>
    </g>
    <g id="text_1">
     <!-- order -->
     <defs>
      <path d="
M30.6094 48.3906
Q23.3906 48.3906 19.1875 42.75
Q14.9844 37.1094 14.9844 27.2969
Q14.9844 17.4844 19.1562 11.8438
Q23.3438 6.20312 30.6094 6.20312
Q37.7969 6.20312 41.9844 11.8594
Q46.1875 17.5312 46.1875 27.2969
Q46.1875 37.0156 41.9844 42.7031
Q37.7969 48.3906 30.6094 48.3906
M30.6094 56
Q42.3281 56 49.0156 48.375
Q55.7188 40.7656 55.7188 27.2969
Q55.7188 13.875 49.0156 6.21875
Q42.3281 -1.42188 30.6094 -1.42188
Q18.8438 -1.42188 12.1719 6.21875
Q5.51562 13.875 5.51562 27.2969
Q5.51562 40.7656 12.1719 48.375
Q18.8438 56 30.6094 56" id="DejaVuSans-6f"/>
      <path d="
M45.4062 46.3906
L45.4062 75.9844
L54.3906 75.9844
L54.3906 0
L45.4062 0
L45.4062 8.20312
Q42.5781 3.32812 38.25 0.953125
Q33.9375 -1.42188 27.875 -1.42188
Q17.9688 -1.42188 11.7344 6.48438
Q5.51562 14.4062 5.51562 27.2969
Q5.51562 40.1875 11.7344 48.0938
Q17.9688 56 27.875 56
Q33.9375 56 38.25 53.625
Q42.5781 51.2656 45.4062 46.3906
M14.7969 27.2969
Q14.7969 17.3906 18.875 11.75
Q22.9531 6.10938 30.0781 6.10938
Q37.2031 6.10938 41.2969 11.75
Q45.4062 17.3906 45.4062 27.2969
Q45.4062 37.2031 41.2969 42.8438
Q37.2031 48.4844 30.0781 48.4844
Q22.9531 48.4844 18.875 42.8438
Q14.7969 37.2031 14.7969 27.2969" id="DejaVuSans-64"/>
      <path d="
M56.2031 29.5938
L56.2031 25.2031
L14.8906 25.2031
Q15.4844 15.9219 20.4844 11.0625
Q25.4844 6.20312 34.4219 6.20312
Q39.5938 6.20312 44.4531 7.46875
Q49.3125 8.73438 54.1094 11.2812
L54.1094 2.78125
Q49.2656 0.734375 44.1875 -0.34375
Q39.1094 -1.42188 33.8906 -1.42188
Q20.7969 -1.42188 13.1562 6.1875
Q5.51562 13.8125 5.51562 26.8125
Q5.51562 40.2344 12.7656 48.1094
Q20.0156 56 32.3281 56
Q43.3594 56 49.7812 48.8906
Q56.2031 41.7969 56.2031 29.5938
M47.2188 32.2344
Q47.125 39.5938 43.0938 43.9844
Q39.0625 48.3906 32.4219 48.3906
Q24.9062 48.3906 20.3906 44.1406
Q15.875 39.8906 15.1875 32.1719
z
" id="DejaVuSans-65"/>
      <path d="
M41.1094 46.2969
Q39.5938 47.1719 37.8125 47.5781
Q36.0312 48 33.8906 48
Q26.2656 48 22.1875 43.0469
Q18.1094 38.0938 18.1094 28.8125
L18.1094 0
L9.07812 0
L9.07812 54.6875
L18.1094 54.6875
L18.1094 46.1875
Q20.9531 51.1719 25.4844 53.5781
Q30.0312 56 36.5312 56
Q37.4531 56 38.5781 55.875
Q39.7031 55.7656 41.0625 55.5156
z
" id="DejaVuSans-72"/>
     </defs>
     <g transform="translate(301.130625 423.758125)scale(0.12 -0.12)">
      <use xlink:href="#DejaVuSans-6f"/>
      <use x="61.181640625" xlink:href="#DejaVuSans-72"/>
      <use x="100.544921875" xlink:href="#DejaVuSans-64"/>
      <use x="164.021484375" xlink:href="#DejaVuSans-65"/>
      <use x="225.544921875" xlink:href="#DejaVuSans-72"/>
     </g>
    </g>
   </g>
   <g id="matplotlib.axis_2">
    <g id="ytick_1">
     <g id="line2d_44">
      <g>
       <use style="stroke:#000000;stroke-width:0.5;" x="93.6" xlink:href="#m48243eeccc" y="404.64"/>
      </g>
     </g>
    </g>
    <g id="ytick_2">
     <g id="line2d_45">
      <g>
       <use style="stroke:#000000;stroke-width:0.5;" x="93.6" xlink:href="#m48243eeccc" y="93.6"/>
      </g>
     </g>
    </g>
    <g id="ytick_3">
     <g id="line2d_46">
      <defs>
       <path d="
M0 0
L-7.68 0" id="m62e4d4fc10" style="stroke:#b2b2b2;stroke-width:0.5;"/>
      </defs>
      <g>
       <use style="fill:#b2b2b2;stroke:#b2b2b2;stroke-width:0.5;" x="93.6" xlink:href="#m62e4d4fc10" y="249.12"/>
      </g>
     </g>
    </g>
   </g>
  </g>
 </g>
</svg>
