<?xml version="1.0" encoding="utf-8" standalone="no"?>
<!DOCTYPE svg PUBLIC "-//W3C//DTD SVG 1.1//EN"
  "http://www.w3.org/Graphics/SVG/1.1/DTD/svg11.dtd">
<!-- Created with matplotlib (http://matplotlib.org/) -->
<svg height="519pt" version="1.1" viewBox="0 0 633 519" width="633pt" xmlns="http://www.w3.org/2000/svg" xmlns:xlink="http://www.w3.org/1999/xlink">
 <defs>
  <style type="text/css">
*{stroke-linecap:butt;stroke-linejoin:round;}
  </style>
 </defs>
 <g id="figure_1">
  <g id="patch_1">
   <path d="
M0 519.854
L633.6 519.854
L633.6 0
L0 0
z
" style="fill:none;"/>
  </g>
  <g id="axes_1">
   <g id="patch_2">
    <path d="
M93.6 404.64
L540 404.64
L540 93.6
L93.6 93.6
z
" style="fill:none;"/>
   </g>
   <g id="patch_3">
    <path d="
M93.6 93.6
L540 93.6" style="fill:none;stroke:#000000;stroke-linecap:square;stroke-linejoin:miter;"/>
   </g>
   <g id="patch_4">
    <path d="
M540 404.64
L540 93.6" style="fill:none;stroke:#000000;stroke-linecap:square;stroke-linejoin:miter;"/>
   </g>
   <g id="patch_5">
    <path d="
M93.6 404.64
L540 404.64" style="fill:none;stroke:#000000;stroke-linecap:square;stroke-linejoin:miter;"/>
   </g>
   <g id="patch_6">
    <path d="
M93.6 404.64
L93.6 93.6" style="fill:none;stroke:#000000;stroke-linecap:square;stroke-linejoin:miter;"/>
   </g>
   <g id="matplotlib.axis_1">
    <g id="xtick_1">
     <g id="line2d_1">
      <defs>
       <path d="
M0 0
L0 0" id="m48243eeccc" style="stroke:#000000;stroke-width:0.5;"/>
      </defs>
      <g>
       <use style="stroke:#000000;stroke-width:0.5;" x="93.6" xlink:href="#m48243eeccc" y="93.6"/>
      </g>
     </g>
    </g>
    <g id="xtick_2">
     <g id="line2d_2">
      <g>
       <use style="stroke:#000000;stroke-width:0.5;" x="205.2" xlink:href="#m48243eeccc" y="93.6"/>
      </g>
     </g>
    </g>
    <g id="xtick_3">
     <g id="line2d_3">
      <g>
       <use style="stroke:#000000;stroke-width:0.5;" x="316.8" xlink:href="#m48243eeccc" y="93.6"/>
      </g>
     </g>
    </g>
    <g id="xtick_4">
     <g id="line2d_4">
      <g>
       <use style="stroke:#000000;stroke-width:0.5;" x="428.4" xlink:href="#m48243eeccc" y="93.6"/>
      </g>
     </g>
    </g>
    <g id="xtick_5">
     <g id="line2d_5">
      <g>
       <use style="stroke:#000000;stroke-width:0.5;" x="540.0" xlink:href="#m48243eeccc" y="93.6"/>
      </g>
     </g>
    </g>
    <g id="xtick_6">
     <g id="line2d_6">
      <defs>
       <path d="
M0 0
L0 -7.8" id="m08b3b2e1ec" style="stroke:#b2b2b2;stroke-width:0.5;"/>
      </defs>
      <g>
       <use style="fill:#b2b2b2;stroke:#b2b2b2;stroke-width:0.5;" x="149.4" xlink:href="#m08b3b2e1ec" y="93.6"/>
      </g>
     </g>
    </g>
    <g id="xtick_7">
     <g id="line2d_7">
      <g>
       <use style="fill:#b2b2b2;stroke:#b2b2b2;stroke-width:0.5;" x="261.0" xlink:href="#m08b3b2e1ec" y="93.6"/>
      </g>
     </g>
    </g>
    <g id="xtick_8">
     <g id="line2d_8">
      <g>
       <use style="fill:#b2b2b2;stroke:#b2b2b2;stroke-width:0.5;" x="372.6" xlink:href="#m08b3b2e1ec" y="93.6"/>
      </g>
     </g>
    </g>
    <g id="xtick_9">
     <g id="line2d_9">
      <g>
       <use style="fill:#b2b2b2;stroke:#b2b2b2;stroke-width:0.5;" x="484.2" xlink:href="#m08b3b2e1ec" y="93.6"/>
      </g>
     </g>
    </g>
    <g id="text_1">
     <!-- strain -->
     <defs>
      <path d="
M54.8906 33.0156
L54.8906 0
L45.9062 0
L45.9062 32.7188
Q45.9062 40.4844 42.875 44.3281
Q39.8438 48.1875 33.7969 48.1875
Q26.5156 48.1875 22.3125 43.5469
Q18.1094 38.9219 18.1094 30.9062
L18.1094 0
L9.07812 0
L9.07812 54.6875
L18.1094 54.6875
L18.1094 46.1875
Q21.3438 51.125 25.7031 53.5625
Q30.0781 56 35.7969 56
Q45.2188 56 50.0469 50.1719
Q54.8906 44.3438 54.8906 33.0156" id="DejaVuSans-6e"/>
      <path d="
M9.42188 54.6875
L18.4062 54.6875
L18.4062 0
L9.42188 0
z

M9.42188 75.9844
L18.4062 75.9844
L18.4062 64.5938
L9.42188 64.5938
z
" id="DejaVuSans-69"/>
      <path d="
M18.3125 70.2188
L18.3125 54.6875
L36.8125 54.6875
L36.8125 47.7031
L18.3125 47.7031
L18.3125 18.0156
Q18.3125 11.3281 20.1406 9.42188
Q21.9688 7.51562 27.5938 7.51562
L36.8125 7.51562
L36.8125 0
L27.5938 0
Q17.1875 0 13.2344 3.875
Q9.28125 7.76562 9.28125 18.0156
L9.28125 47.7031
L2.6875 47.7031
L2.6875 54.6875
L9.28125 54.6875
L9.28125 70.2188
z
" id="DejaVuSans-74"/>
      <path d="
M41.1094 46.2969
Q39.5938 47.1719 37.8125 47.5781
Q36.0312 48 33.8906 48
Q26.2656 48 22.1875 43.0469
Q18.1094 38.0938 18.1094 28.8125
L18.1094 0
L9.07812 0
L9.07812 54.6875
L18.1094 54.6875
L18.1094 46.1875
Q20.9531 51.1719 25.4844 53.5781
Q30.0312 56 36.5312 56
Q37.4531 56 38.5781 55.875
Q39.7031 55.7656 41.0625 55.5156
z
" id="DejaVuSans-72"/>
      <path d="
M44.2812 53.0781
L44.2812 44.5781
Q40.4844 46.5312 36.375 47.5
Q32.2812 48.4844 27.875 48.4844
Q21.1875 48.4844 17.8438 46.4375
Q14.5 44.3906 14.5 40.2812
Q14.5 37.1562 16.8906 35.375
Q19.2812 33.5938 26.5156 31.9844
L29.5938 31.2969
Q39.1562 29.25 43.1875 25.5156
Q47.2188 21.7812 47.2188 15.0938
Q47.2188 7.46875 41.1875 3.01562
Q35.1562 -1.42188 24.6094 -1.42188
Q20.2188 -1.42188 15.4531 -0.5625
Q10.6875 0.296875 5.42188 2
L5.42188 11.2812
Q10.4062 8.6875 15.2344 7.39062
Q20.0625 6.10938 24.8125 6.10938
Q31.1562 6.10938 34.5625 8.28125
Q37.9844 10.4531 37.9844 14.4062
Q37.9844 18.0625 35.5156 20.0156
Q33.0625 21.9688 24.7031 23.7812
L21.5781 24.5156
Q13.2344 26.2656 9.51562 29.9062
Q5.8125 33.5469 5.8125 39.8906
Q5.8125 47.6094 11.2812 51.7969
Q16.75 56 26.8125 56
Q31.7812 56 36.1719 55.2656
Q40.5781 54.5469 44.2812 53.0781" id="DejaVuSans-73"/>
      <path d="
M34.2812 27.4844
Q23.3906 27.4844 19.1875 25
Q14.9844 22.5156 14.9844 16.5
Q14.9844 11.7188 18.1406 8.90625
Q21.2969 6.10938 26.7031 6.10938
Q34.1875 6.10938 38.7031 11.4062
Q43.2188 16.7031 43.2188 25.4844
L43.2188 27.4844
z

M52.2031 31.2031
L52.2031 0
L43.2188 0
L43.2188 8.29688
Q40.1406 3.32812 35.5469 0.953125
Q30.9531 -1.42188 24.3125 -1.42188
Q15.9219 -1.42188 10.9531 3.29688
Q6 8.01562 6 15.9219
Q6 25.1406 12.1719 29.8281
Q18.3594 34.5156 30.6094 34.5156
L43.2188 34.5156
L43.2188 35.4062
Q43.2188 41.6094 39.1406 45
Q35.0625 48.3906 27.6875 48.3906
Q23 48.3906 18.5469 47.2656
Q14.1094 46.1406 10.0156 43.8906
L10.0156 52.2031
Q14.9375 54.1094 19.5781 55.0469
Q24.2188 56 28.6094 56
Q40.4844 56 46.3438 49.8438
Q52.2031 43.7031 52.2031 31.2031" id="DejaVuSans-61"/>
     </defs>
     <g transform="translate(300.54375 423.758125)scale(0.12 -0.12)">
      <use xlink:href="#DejaVuSans-73"/>
      <use x="52.099609375" xlink:href="#DejaVuSans-74"/>
      <use x="91.30859375" xlink:href="#DejaVuSans-72"/>
      <use x="132.421875" xlink:href="#DejaVuSans-61"/>
      <use x="193.701171875" xlink:href="#DejaVuSans-69"/>
      <use x="221.484375" xlink:href="#DejaVuSans-6e"/>
     </g>
    </g>
   </g>
   <g id="matplotlib.axis_2">
    <g id="ytick_1">
     <g id="line2d_10">
      <g>
       <use style="stroke:#000000;stroke-width:0.5;" x="93.6" xlink:href="#m48243eeccc" y="404.64"/>
      </g>
     </g>
    </g>
    <g id="ytick_2">
     <g id="line2d_11">
      <g>
       <use style="stroke:#000000;stroke-width:0.5;" x="93.6" xlink:href="#m48243eeccc" y="388.269473684"/>
      </g>
     </g>
    </g>
    <g id="ytick_3">
     <g id="line2d_12">
      <g>
       <use style="stroke:#000000;stroke-width:0.5;" x="93.6" xlink:href="#m48243eeccc" y="371.898947368"/>
      </g>
     </g>
    </g>
    <g id="ytick_4">
     <g id="line2d_13">
      <g>
       <use style="stroke:#000000;stroke-width:0.5;" x="93.6" xlink:href="#m48243eeccc" y="355.528421053"/>
      </g>
     </g>
    </g>
    <g id="ytick_5">
     <g id="line2d_14">
      <g>
       <use style="stroke:#000000;stroke-width:0.5;" x="93.6" xlink:href="#m48243eeccc" y="339.157894737"/>
      </g>
     </g>
    </g>
    <g id="ytick_6">
     <g id="line2d_15">
      <g>
       <use style="stroke:#000000;stroke-width:0.5;" x="93.6" xlink:href="#m48243eeccc" y="322.787368421"/>
      </g>
     </g>
    </g>
    <g id="ytick_7">
     <g id="line2d_16">
      <g>
       <use style="stroke:#000000;stroke-width:0.5;" x="93.6" xlink:href="#m48243eeccc" y="306.416842105"/>
      </g>
     </g>
    </g>
    <g id="ytick_8">
     <g id="line2d_17">
      <g>
       <use style="stroke:#000000;stroke-width:0.5;" x="93.6" xlink:href="#m48243eeccc" y="290.046315789"/>
      </g>
     </g>
    </g>
    <g id="ytick_9">
     <g id="line2d_18">
      <g>
       <use style="stroke:#000000;stroke-width:0.5;" x="93.6" xlink:href="#m48243eeccc" y="273.675789474"/>
      </g>
     </g>
    </g>
    <g id="ytick_10">
     <g id="line2d_19">
      <g>
       <use style="stroke:#000000;stroke-width:0.5;" x="93.6" xlink:href="#m48243eeccc" y="257.305263158"/>
      </g>
     </g>
    </g>
    <g id="ytick_11">
     <g id="line2d_20">
      <g>
       <use style="stroke:#000000;stroke-width:0.5;" x="93.6" xlink:href="#m48243eeccc" y="240.934736842"/>
      </g>
     </g>
    </g>
    <g id="ytick_12">
     <g id="line2d_21">
      <g>
       <use style="stroke:#000000;stroke-width:0.5;" x="93.6" xlink:href="#m48243eeccc" y="224.564210526"/>
      </g>
     </g>
    </g>
    <g id="ytick_13">
     <g id="line2d_22">
      <g>
       <use style="stroke:#000000;stroke-width:0.5;" x="93.6" xlink:href="#m48243eeccc" y="208.193684211"/>
      </g>
     </g>
    </g>
    <g id="ytick_14">
     <g id="line2d_23">
      <g>
       <use style="stroke:#000000;stroke-width:0.5;" x="93.6" xlink:href="#m48243eeccc" y="191.823157895"/>
      </g>
     </g>
    </g>
    <g id="ytick_15">
     <g id="line2d_24">
      <g>
       <use style="stroke:#000000;stroke-width:0.5;" x="93.6" xlink:href="#m48243eeccc" y="175.452631579"/>
      </g>
     </g>
    </g>
    <g id="ytick_16">
     <g id="line2d_25">
      <g>
       <use style="stroke:#000000;stroke-width:0.5;" x="93.6" xlink:href="#m48243eeccc" y="159.082105263"/>
      </g>
     </g>
    </g>
    <g id="ytick_17">
     <g id="line2d_26">
      <g>
       <use style="stroke:#000000;stroke-width:0.5;" x="93.6" xlink:href="#m48243eeccc" y="142.711578947"/>
      </g>
     </g>
    </g>
    <g id="ytick_18">
     <g id="line2d_27">
      <g>
       <use style="stroke:#000000;stroke-width:0.5;" x="93.6" xlink:href="#m48243eeccc" y="126.341052632"/>
      </g>
     </g>
    </g>
    <g id="ytick_19">
     <g id="line2d_28">
      <g>
       <use style="stroke:#000000;stroke-width:0.5;" x="93.6" xlink:href="#m48243eeccc" y="109.970526316"/>
      </g>
     </g>
    </g>
    <g id="ytick_20">
     <g id="line2d_29">
      <g>
       <use style="stroke:#000000;stroke-width:0.5;" x="93.6" xlink:href="#m48243eeccc" y="93.6"/>
      </g>
     </g>
    </g>
    <g id="ytick_21">
     <g id="line2d_30">
      <defs>
       <path d="
M0 0
L-7.8 0" id="me4f521320c" style="stroke:#b2b2b2;stroke-width:0.5;"/>
      </defs>
      <g>
       <use style="fill:#b2b2b2;stroke:#b2b2b2;stroke-width:0.5;" x="93.6" xlink:href="#me4f521320c" y="396.454736842"/>
      </g>
     </g>
    </g>
    <g id="ytick_22">
     <g id="line2d_31">
      <g>
       <use style="fill:#b2b2b2;stroke:#b2b2b2;stroke-width:0.5;" x="93.6" xlink:href="#me4f521320c" y="380.084210526"/>
      </g>
     </g>
    </g>
    <g id="ytick_23">
     <g id="line2d_32">
      <g>
       <use style="fill:#b2b2b2;stroke:#b2b2b2;stroke-width:0.5;" x="93.6" xlink:href="#me4f521320c" y="363.713684211"/>
      </g>
     </g>
    </g>
    <g id="ytick_24">
     <g id="line2d_33">
      <g>
       <use style="fill:#b2b2b2;stroke:#b2b2b2;stroke-width:0.5;" x="93.6" xlink:href="#me4f521320c" y="347.343157895"/>
      </g>
     </g>
    </g>
    <g id="ytick_25">
     <g id="line2d_34">
      <g>
       <use style="fill:#b2b2b2;stroke:#b2b2b2;stroke-width:0.5;" x="93.6" xlink:href="#me4f521320c" y="330.972631579"/>
      </g>
     </g>
    </g>
    <g id="ytick_26">
     <g id="line2d_35">
      <g>
       <use style="fill:#b2b2b2;stroke:#b2b2b2;stroke-width:0.5;" x="93.6" xlink:href="#me4f521320c" y="314.602105263"/>
      </g>
     </g>
    </g>
    <g id="ytick_27">
     <g id="line2d_36">
      <g>
       <use style="fill:#b2b2b2;stroke:#b2b2b2;stroke-width:0.5;" x="93.6" xlink:href="#me4f521320c" y="298.231578947"/>
      </g>
     </g>
    </g>
    <g id="ytick_28">
     <g id="line2d_37">
      <g>
       <use style="fill:#b2b2b2;stroke:#b2b2b2;stroke-width:0.5;" x="93.6" xlink:href="#me4f521320c" y="281.861052632"/>
      </g>
     </g>
    </g>
    <g id="ytick_29">
     <g id="line2d_38">
      <g>
       <use style="fill:#b2b2b2;stroke:#b2b2b2;stroke-width:0.5;" x="93.6" xlink:href="#me4f521320c" y="265.490526316"/>
      </g>
     </g>
    </g>
    <g id="ytick_30">
     <g id="line2d_39">
      <g>
       <use style="fill:#b2b2b2;stroke:#b2b2b2;stroke-width:0.5;" x="93.6" xlink:href="#me4f521320c" y="249.12"/>
      </g>
     </g>
    </g>
    <g id="ytick_31">
     <g id="line2d_40">
      <g>
       <use style="fill:#b2b2b2;stroke:#b2b2b2;stroke-width:0.5;" x="93.6" xlink:href="#me4f521320c" y="232.749473684"/>
      </g>
     </g>
    </g>
    <g id="ytick_32">
     <g id="line2d_41">
      <g>
       <use style="fill:#b2b2b2;stroke:#b2b2b2;stroke-width:0.5;" x="93.6" xlink:href="#me4f521320c" y="216.378947368"/>
      </g>
     </g>
    </g>
    <g id="ytick_33">
     <g id="line2d_42">
      <g>
       <use style="fill:#b2b2b2;stroke:#b2b2b2;stroke-width:0.5;" x="93.6" xlink:href="#me4f521320c" y="200.008421053"/>
      </g>
     </g>
    </g>
    <g id="ytick_34">
     <g id="line2d_43">
      <g>
       <use style="fill:#b2b2b2;stroke:#b2b2b2;stroke-width:0.5;" x="93.6" xlink:href="#me4f521320c" y="183.637894737"/>
      </g>
     </g>
    </g>
    <g id="ytick_35">
     <g id="line2d_44">
      <g>
       <use style="fill:#b2b2b2;stroke:#b2b2b2;stroke-width:0.5;" x="93.6" xlink:href="#me4f521320c" y="167.267368421"/>
      </g>
     </g>
    </g>
    <g id="ytick_36">
     <g id="line2d_45">
      <g>
       <use style="fill:#b2b2b2;stroke:#b2b2b2;stroke-width:0.5;" x="93.6" xlink:href="#me4f521320c" y="150.896842105"/>
      </g>
     </g>
    </g>
    <g id="ytick_37">
     <g id="line2d_46">
      <g>
       <use style="fill:#b2b2b2;stroke:#b2b2b2;stroke-width:0.5;" x="93.6" xlink:href="#me4f521320c" y="134.526315789"/>
      </g>
     </g>
    </g>
    <g id="ytick_38">
     <g id="line2d_47">
      <g>
       <use style="fill:#b2b2b2;stroke:#b2b2b2;stroke-width:0.5;" x="93.6" xlink:href="#me4f521320c" y="118.155789474"/>
      </g>
     </g>
    </g>
    <g id="ytick_39">
     <g id="line2d_48">
      <g>
       <use style="fill:#b2b2b2;stroke:#b2b2b2;stroke-width:0.5;" x="93.6" xlink:href="#me4f521320c" y="101.785263158"/>
      </g>
     </g>
    </g>
   </g>
  </g>
 </g>
</svg>
