<?xml version="1.0" encoding="utf-8" standalone="no"?>
<!DOCTYPE svg PUBLIC "-//W3C//DTD SVG 1.1//EN"
  "http://www.w3.org/Graphics/SVG/1.1/DTD/svg11.dtd">
<!-- Created with matplotlib (http://matplotlib.org/) -->
<svg height="642pt" version="1.1" viewBox="0 0 759 642" width="759pt" xmlns="http://www.w3.org/2000/svg" xmlns:xlink="http://www.w3.org/1999/xlink">
 <defs>
  <style type="text/css">
*{stroke-linecap:butt;stroke-linejoin:round;}
  </style>
 </defs>
 <g id="figure_1">
  <g id="patch_1">
   <path d="
M0 642.074
L759.972 642.074
L759.972 0
L0 0
z
" style="fill:none;"/>
  </g>
  <g id="axes_1">
   <g id="patch_2">
    <path d="
M215.82 526.86
L662.22 526.86
L662.22 215.82
L215.82 215.82
z
" style="fill:none;"/>
   </g>
   <g id="patch_3">
    <path d="
M215.82 215.82
L662.22 215.82" style="fill:none;stroke:#000000;stroke-linecap:square;stroke-linejoin:miter;"/>
   </g>
   <g id="patch_4">
    <path d="
M662.22 526.86
L662.22 215.82" style="fill:none;stroke:#000000;stroke-linecap:square;stroke-linejoin:miter;"/>
   </g>
   <g id="patch_5">
    <path d="
M215.82 526.86
L662.22 526.86" style="fill:none;stroke:#000000;stroke-linecap:square;stroke-linejoin:miter;"/>
   </g>
   <g id="patch_6">
    <path d="
M215.82 526.86
L215.82 215.82" style="fill:none;stroke:#000000;stroke-linecap:square;stroke-linejoin:miter;"/>
   </g>
   <g id="matplotlib.axis_1">
    <g id="xtick_1">
     <g id="line2d_1">
      <defs>
       <path d="
M0 0
L0 0" id="m48243eeccc" style="stroke:#000000;stroke-width:0.5;"/>
      </defs>
      <g>
       <use style="stroke:#000000;stroke-width:0.5;" x="215.820334375" xlink:href="#m48243eeccc" y="215.820334375"/>
      </g>
     </g>
    </g>
    <g id="xtick_2">
     <g id="line2d_2">
      <g>
       <use style="stroke:#000000;stroke-width:0.5;" x="290.220334375" xlink:href="#m48243eeccc" y="215.820334375"/>
      </g>
     </g>
     <g id="text_1">
      <!-- Clostridiales Family XIX.... -->
      <defs>
       <path d="
M56.2031 29.5938
L56.2031 25.2031
L14.8906 25.2031
Q15.4844 15.9219 20.4844 11.0625
Q25.4844 6.20312 34.4219 6.20312
Q39.5938 6.20312 44.4531 7.46875
Q49.3125 8.73438 54.1094 11.2812
L54.1094 2.78125
Q49.2656 0.734375 44.1875 -0.34375
Q39.1094 -1.42188 33.8906 -1.42188
Q20.7969 -1.42188 13.1562 6.1875
Q5.51562 13.8125 5.51562 26.8125
Q5.51562 40.2344 12.7656 48.1094
Q20.0156 56 32.3281 56
Q43.3594 56 49.7812 48.8906
Q56.2031 41.7969 56.2031 29.5938
M47.2188 32.2344
Q47.125 39.5938 43.0938 43.9844
Q39.0625 48.3906 32.4219 48.3906
Q24.9062 48.3906 20.3906 44.1406
Q15.875 39.8906 15.1875 32.1719
z
" id="DejaVuSans-65"/>
       <path d="
M9.8125 72.9062
L51.7031 72.9062
L51.7031 64.5938
L19.6719 64.5938
L19.6719 43.1094
L48.5781 43.1094
L48.5781 34.8125
L19.6719 34.8125
L19.6719 0
L9.8125 0
z
" id="DejaVuSans-46"/>
       <path d="
M10.6875 12.4062
L21 12.4062
L21 0
L10.6875 0
z
" id="DejaVuSans-2e"/>
       <path d="
M30.6094 48.3906
Q23.3906 48.3906 19.1875 42.75
Q14.9844 37.1094 14.9844 27.2969
Q14.9844 17.4844 19.1562 11.8438
Q23.3438 6.20312 30.6094 6.20312
Q37.7969 6.20312 41.9844 11.8594
Q46.1875 17.5312 46.1875 27.2969
Q46.1875 37.0156 41.9844 42.7031
Q37.7969 48.3906 30.6094 48.3906
M30.6094 56
Q42.3281 56 49.0156 48.375
Q55.7188 40.7656 55.7188 27.2969
Q55.7188 13.875 49.0156 6.21875
Q42.3281 -1.42188 30.6094 -1.42188
Q18.8438 -1.42188 12.1719 6.21875
Q5.51562 13.875 5.51562 27.2969
Q5.51562 40.7656 12.1719 48.375
Q18.8438 56 30.6094 56" id="DejaVuSans-6f"/>
       <path d="
M52 44.1875
Q55.375 50.25 60.0625 53.125
Q64.75 56 71.0938 56
Q79.6406 56 84.2812 50.0156
Q88.9219 44.0469 88.9219 33.0156
L88.9219 0
L79.8906 0
L79.8906 32.7188
Q79.8906 40.5781 77.0938 44.375
Q74.3125 48.1875 68.6094 48.1875
Q61.625 48.1875 57.5625 43.5469
Q53.5156 38.9219 53.5156 30.9062
L53.5156 0
L44.4844 0
L44.4844 32.7188
Q44.4844 40.625 41.7031 44.4062
Q38.9219 48.1875 33.1094 48.1875
Q26.2188 48.1875 22.1562 43.5312
Q18.1094 38.875 18.1094 30.9062
L18.1094 0
L9.07812 0
L9.07812 54.6875
L18.1094 54.6875
L18.1094 46.1875
Q21.1875 51.2188 25.4844 53.6094
Q29.7812 56 35.6875 56
Q41.6562 56 45.8281 52.9688
Q50 49.9531 52 44.1875" id="DejaVuSans-6d"/>
       <path d="
M9.42188 54.6875
L18.4062 54.6875
L18.4062 0
L9.42188 0
z

M9.42188 75.9844
L18.4062 75.9844
L18.4062 64.5938
L9.42188 64.5938
z
" id="DejaVuSans-69"/>
       <path d="
M9.42188 75.9844
L18.4062 75.9844
L18.4062 0
L9.42188 0
z
" id="DejaVuSans-6c"/>
       <path id="DejaVuSans-20"/>
       <path d="
M6.29688 72.9062
L16.8906 72.9062
L35.0156 45.7969
L53.2188 72.9062
L63.8125 72.9062
L40.375 37.8906
L65.375 0
L54.7812 0
L34.2812 31
L13.625 0
L2.98438 0
L29 38.9219
z
" id="DejaVuSans-58"/>
       <path d="
M32.1719 -5.07812
Q28.375 -14.8438 24.75 -17.8125
Q21.1406 -20.7969 15.0938 -20.7969
L7.90625 -20.7969
L7.90625 -13.2812
L13.1875 -13.2812
Q16.8906 -13.2812 18.9375 -11.5156
Q21 -9.76562 23.4844 -3.21875
L25.0938 0.875
L2.98438 54.6875
L12.5 54.6875
L29.5938 11.9219
L46.6875 54.6875
L56.2031 54.6875
z
" id="DejaVuSans-79"/>
       <path d="
M64.4062 67.2812
L64.4062 56.8906
Q59.4219 61.5312 53.7812 63.8125
Q48.1406 66.1094 41.7969 66.1094
Q29.2969 66.1094 22.6562 58.4688
Q16.0156 50.8281 16.0156 36.375
Q16.0156 21.9688 22.6562 14.3281
Q29.2969 6.6875 41.7969 6.6875
Q48.1406 6.6875 53.7812 8.98438
Q59.4219 11.2812 64.4062 15.9219
L64.4062 5.60938
Q59.2344 2.09375 53.4375 0.328125
Q47.6562 -1.42188 41.2188 -1.42188
Q24.6562 -1.42188 15.125 8.70312
Q5.60938 18.8438 5.60938 36.375
Q5.60938 53.9531 15.125 64.0781
Q24.6562 74.2188 41.2188 74.2188
Q47.75 74.2188 53.5312 72.4844
Q59.3281 70.75 64.4062 67.2812" id="DejaVuSans-43"/>
       <path d="
M18.3125 70.2188
L18.3125 54.6875
L36.8125 54.6875
L36.8125 47.7031
L18.3125 47.7031
L18.3125 18.0156
Q18.3125 11.3281 20.1406 9.42188
Q21.9688 7.51562 27.5938 7.51562
L36.8125 7.51562
L36.8125 0
L27.5938 0
Q17.1875 0 13.2344 3.875
Q9.28125 7.76562 9.28125 18.0156
L9.28125 47.7031
L2.6875 47.7031
L2.6875 54.6875
L9.28125 54.6875
L9.28125 70.2188
z
" id="DejaVuSans-74"/>
       <path d="
M45.4062 46.3906
L45.4062 75.9844
L54.3906 75.9844
L54.3906 0
L45.4062 0
L45.4062 8.20312
Q42.5781 3.32812 38.25 0.953125
Q33.9375 -1.42188 27.875 -1.42188
Q17.9688 -1.42188 11.7344 6.48438
Q5.51562 14.4062 5.51562 27.2969
Q5.51562 40.1875 11.7344 48.0938
Q17.9688 56 27.875 56
Q33.9375 56 38.25 53.625
Q42.5781 51.2656 45.4062 46.3906
M14.7969 27.2969
Q14.7969 17.3906 18.875 11.75
Q22.9531 6.10938 30.0781 6.10938
Q37.2031 6.10938 41.2969 11.75
Q45.4062 17.3906 45.4062 27.2969
Q45.4062 37.2031 41.2969 42.8438
Q37.2031 48.4844 30.0781 48.4844
Q22.9531 48.4844 18.875 42.8438
Q14.7969 37.2031 14.7969 27.2969" id="DejaVuSans-64"/>
       <path d="
M34.2812 27.4844
Q23.3906 27.4844 19.1875 25
Q14.9844 22.5156 14.9844 16.5
Q14.9844 11.7188 18.1406 8.90625
Q21.2969 6.10938 26.7031 6.10938
Q34.1875 6.10938 38.7031 11.4062
Q43.2188 16.7031 43.2188 25.4844
L43.2188 27.4844
z

M52.2031 31.2031
L52.2031 0
L43.2188 0
L43.2188 8.29688
Q40.1406 3.32812 35.5469 0.953125
Q30.9531 -1.42188 24.3125 -1.42188
Q15.9219 -1.42188 10.9531 3.29688
Q6 8.01562 6 15.9219
Q6 25.1406 12.1719 29.8281
Q18.3594 34.5156 30.6094 34.5156
L43.2188 34.5156
L43.2188 35.4062
Q43.2188 41.6094 39.1406 45
Q35.0625 48.3906 27.6875 48.3906
Q23 48.3906 18.5469 47.2656
Q14.1094 46.1406 10.0156 43.8906
L10.0156 52.2031
Q14.9375 54.1094 19.5781 55.0469
Q24.2188 56 28.6094 56
Q40.4844 56 46.3438 49.8438
Q52.2031 43.7031 52.2031 31.2031" id="DejaVuSans-61"/>
       <path d="
M9.8125 72.9062
L19.6719 72.9062
L19.6719 0
L9.8125 0
z
" id="DejaVuSans-49"/>
       <path d="
M44.2812 53.0781
L44.2812 44.5781
Q40.4844 46.5312 36.375 47.5
Q32.2812 48.4844 27.875 48.4844
Q21.1875 48.4844 17.8438 46.4375
Q14.5 44.3906 14.5 40.2812
Q14.5 37.1562 16.8906 35.375
Q19.2812 33.5938 26.5156 31.9844
L29.5938 31.2969
Q39.1562 29.25 43.1875 25.5156
Q47.2188 21.7812 47.2188 15.0938
Q47.2188 7.46875 41.1875 3.01562
Q35.1562 -1.42188 24.6094 -1.42188
Q20.2188 -1.42188 15.4531 -0.5625
Q10.6875 0.296875 5.42188 2
L5.42188 11.2812
Q10.4062 8.6875 15.2344 7.39062
Q20.0625 6.10938 24.8125 6.10938
Q31.1562 6.10938 34.5625 8.28125
Q37.9844 10.4531 37.9844 14.4062
Q37.9844 18.0625 35.5156 20.0156
Q33.0625 21.9688 24.7031 23.7812
L21.5781 24.5156
Q13.2344 26.2656 9.51562 29.9062
Q5.8125 33.5469 5.8125 39.8906
Q5.8125 47.6094 11.2812 51.7969
Q16.75 56 26.8125 56
Q31.7812 56 36.1719 55.2656
Q40.5781 54.5469 44.2812 53.0781" id="DejaVuSans-73"/>
       <path d="
M41.1094 46.2969
Q39.5938 47.1719 37.8125 47.5781
Q36.0312 48 33.8906 48
Q26.2656 48 22.1875 43.0469
Q18.1094 38.0938 18.1094 28.8125
L18.1094 0
L9.07812 0
L9.07812 54.6875
L18.1094 54.6875
L18.1094 46.1875
Q20.9531 51.1719 25.4844 53.5781
Q30.0312 56 36.5312 56
Q37.4531 56 38.5781 55.875
Q39.7031 55.7656 41.0625 55.5156
z
" id="DejaVuSans-72"/>
      </defs>
      <g transform="translate(292.587878125 211.820334375)rotate(-90.0)scale(0.0858 -0.0858)">
       <use xlink:href="#DejaVuSans-43"/>
       <use x="69.82421875" xlink:href="#DejaVuSans-6c"/>
       <use x="97.607421875" xlink:href="#DejaVuSans-6f"/>
       <use x="158.7890625" xlink:href="#DejaVuSans-73"/>
       <use x="210.888671875" xlink:href="#DejaVuSans-74"/>
       <use x="250.09765625" xlink:href="#DejaVuSans-72"/>
       <use x="291.2109375" xlink:href="#DejaVuSans-69"/>
       <use x="318.994140625" xlink:href="#DejaVuSans-64"/>
       <use x="382.470703125" xlink:href="#DejaVuSans-69"/>
       <use x="410.25390625" xlink:href="#DejaVuSans-61"/>
       <use x="471.533203125" xlink:href="#DejaVuSans-6c"/>
       <use x="499.31640625" xlink:href="#DejaVuSans-65"/>
       <use x="560.83984375" xlink:href="#DejaVuSans-73"/>
       <use x="612.939453125" xlink:href="#DejaVuSans-20"/>
       <use x="644.7265625" xlink:href="#DejaVuSans-46"/>
       <use x="693.12109375" xlink:href="#DejaVuSans-61"/>
       <use x="754.400390625" xlink:href="#DejaVuSans-6d"/>
       <use x="851.8125" xlink:href="#DejaVuSans-69"/>
       <use x="879.595703125" xlink:href="#DejaVuSans-6c"/>
       <use x="907.37890625" xlink:href="#DejaVuSans-79"/>
       <use x="966.55859375" xlink:href="#DejaVuSans-20"/>
       <use x="998.345703125" xlink:href="#DejaVuSans-58"/>
       <use x="1066.8515625" xlink:href="#DejaVuSans-49"/>
       <use x="1096.34375" xlink:href="#DejaVuSans-58"/>
       <use x="1164.84960938" xlink:href="#DejaVuSans-2e"/>
       <use x="1196.63671875" xlink:href="#DejaVuSans-2e"/>
       <use x="1228.42382812" xlink:href="#DejaVuSans-2e"/>
       <use x="1260.2109375" xlink:href="#DejaVuSans-2e"/>
      </g>
     </g>
    </g>
    <g id="xtick_3">
     <g id="line2d_3">
      <g>
       <use style="stroke:#000000;stroke-width:0.5;" x="364.620334375" xlink:href="#m48243eeccc" y="215.820334375"/>
      </g>
     </g>
     <g id="text_2">
      <!-- Clostridiales Family XVI.... -->
      <defs>
       <path d="
M28.6094 0
L0.78125 72.9062
L11.0781 72.9062
L34.1875 11.5312
L57.3281 72.9062
L67.5781 72.9062
L39.7969 0
z
" id="DejaVuSans-56"/>
      </defs>
      <g transform="translate(366.987878125 211.820334375)rotate(-90.0)scale(0.0858 -0.0858)">
       <use xlink:href="#DejaVuSans-43"/>
       <use x="69.82421875" xlink:href="#DejaVuSans-6c"/>
       <use x="97.607421875" xlink:href="#DejaVuSans-6f"/>
       <use x="158.7890625" xlink:href="#DejaVuSans-73"/>
       <use x="210.888671875" xlink:href="#DejaVuSans-74"/>
       <use x="250.09765625" xlink:href="#DejaVuSans-72"/>
       <use x="291.2109375" xlink:href="#DejaVuSans-69"/>
       <use x="318.994140625" xlink:href="#DejaVuSans-64"/>
       <use x="382.470703125" xlink:href="#DejaVuSans-69"/>
       <use x="410.25390625" xlink:href="#DejaVuSans-61"/>
       <use x="471.533203125" xlink:href="#DejaVuSans-6c"/>
       <use x="499.31640625" xlink:href="#DejaVuSans-65"/>
       <use x="560.83984375" xlink:href="#DejaVuSans-73"/>
       <use x="612.939453125" xlink:href="#DejaVuSans-20"/>
       <use x="644.7265625" xlink:href="#DejaVuSans-46"/>
       <use x="693.12109375" xlink:href="#DejaVuSans-61"/>
       <use x="754.400390625" xlink:href="#DejaVuSans-6d"/>
       <use x="851.8125" xlink:href="#DejaVuSans-69"/>
       <use x="879.595703125" xlink:href="#DejaVuSans-6c"/>
       <use x="907.37890625" xlink:href="#DejaVuSans-79"/>
       <use x="966.55859375" xlink:href="#DejaVuSans-20"/>
       <use x="998.345703125" xlink:href="#DejaVuSans-58"/>
       <use x="1066.8515625" xlink:href="#DejaVuSans-56"/>
       <use x="1135.25976562" xlink:href="#DejaVuSans-49"/>
       <use x="1164.75195312" xlink:href="#DejaVuSans-2e"/>
       <use x="1196.5390625" xlink:href="#DejaVuSans-2e"/>
       <use x="1228.32617188" xlink:href="#DejaVuSans-2e"/>
       <use x="1260.11328125" xlink:href="#DejaVuSans-2e"/>
      </g>
     </g>
    </g>
    <g id="xtick_4">
     <g id="line2d_4">
      <g>
       <use style="stroke:#000000;stroke-width:0.5;" x="439.020334375" xlink:href="#m48243eeccc" y="215.820334375"/>
      </g>
     </g>
     <g id="text_3">
      <!-- Peptostreptococcaceae -->
      <defs>
       <path d="
M19.6719 64.7969
L19.6719 37.4062
L32.0781 37.4062
Q38.9688 37.4062 42.7188 40.9688
Q46.4844 44.5312 46.4844 51.125
Q46.4844 57.6719 42.7188 61.2344
Q38.9688 64.7969 32.0781 64.7969
z

M9.8125 72.9062
L32.0781 72.9062
Q44.3438 72.9062 50.6094 67.3594
Q56.8906 61.8125 56.8906 51.125
Q56.8906 40.3281 50.6094 34.8125
Q44.3438 29.2969 32.0781 29.2969
L19.6719 29.2969
L19.6719 0
L9.8125 0
z
" id="DejaVuSans-50"/>
       <path d="
M18.1094 8.20312
L18.1094 -20.7969
L9.07812 -20.7969
L9.07812 54.6875
L18.1094 54.6875
L18.1094 46.3906
Q20.9531 51.2656 25.2656 53.625
Q29.5938 56 35.5938 56
Q45.5625 56 51.7812 48.0938
Q58.0156 40.1875 58.0156 27.2969
Q58.0156 14.4062 51.7812 6.48438
Q45.5625 -1.42188 35.5938 -1.42188
Q29.5938 -1.42188 25.2656 0.953125
Q20.9531 3.32812 18.1094 8.20312
M48.6875 27.2969
Q48.6875 37.2031 44.6094 42.8438
Q40.5312 48.4844 33.4062 48.4844
Q26.2656 48.4844 22.1875 42.8438
Q18.1094 37.2031 18.1094 27.2969
Q18.1094 17.3906 22.1875 11.75
Q26.2656 6.10938 33.4062 6.10938
Q40.5312 6.10938 44.6094 11.75
Q48.6875 17.3906 48.6875 27.2969" id="DejaVuSans-70"/>
       <path d="
M48.7812 52.5938
L48.7812 44.1875
Q44.9688 46.2969 41.1406 47.3438
Q37.3125 48.3906 33.4062 48.3906
Q24.6562 48.3906 19.8125 42.8438
Q14.9844 37.3125 14.9844 27.2969
Q14.9844 17.2812 19.8125 11.7344
Q24.6562 6.20312 33.4062 6.20312
Q37.3125 6.20312 41.1406 7.25
Q44.9688 8.29688 48.7812 10.4062
L48.7812 2.09375
Q45.0156 0.34375 40.9844 -0.53125
Q36.9688 -1.42188 32.4219 -1.42188
Q20.0625 -1.42188 12.7812 6.34375
Q5.51562 14.1094 5.51562 27.2969
Q5.51562 40.6719 12.8594 48.3281
Q20.2188 56 33.0156 56
Q37.1562 56 41.1094 55.1406
Q45.0625 54.2969 48.7812 52.5938" id="DejaVuSans-63"/>
      </defs>
      <g transform="translate(441.387878125 211.820334375)rotate(-90.0)scale(0.0858 -0.0858)">
       <use xlink:href="#DejaVuSans-50"/>
       <use x="56.677734375" xlink:href="#DejaVuSans-65"/>
       <use x="118.201171875" xlink:href="#DejaVuSans-70"/>
       <use x="181.677734375" xlink:href="#DejaVuSans-74"/>
       <use x="220.88671875" xlink:href="#DejaVuSans-6f"/>
       <use x="282.068359375" xlink:href="#DejaVuSans-73"/>
       <use x="334.16796875" xlink:href="#DejaVuSans-74"/>
       <use x="373.376953125" xlink:href="#DejaVuSans-72"/>
       <use x="412.240234375" xlink:href="#DejaVuSans-65"/>
       <use x="473.763671875" xlink:href="#DejaVuSans-70"/>
       <use x="537.240234375" xlink:href="#DejaVuSans-74"/>
       <use x="576.44921875" xlink:href="#DejaVuSans-6f"/>
       <use x="637.630859375" xlink:href="#DejaVuSans-63"/>
       <use x="692.611328125" xlink:href="#DejaVuSans-6f"/>
       <use x="753.79296875" xlink:href="#DejaVuSans-63"/>
       <use x="808.7734375" xlink:href="#DejaVuSans-63"/>
       <use x="863.75390625" xlink:href="#DejaVuSans-61"/>
       <use x="925.033203125" xlink:href="#DejaVuSans-63"/>
       <use x="980.013671875" xlink:href="#DejaVuSans-65"/>
       <use x="1041.53710938" xlink:href="#DejaVuSans-61"/>
       <use x="1102.81640625" xlink:href="#DejaVuSans-65"/>
      </g>
     </g>
    </g>
    <g id="xtick_5">
     <g id="line2d_5">
      <g>
       <use style="stroke:#000000;stroke-width:0.5;" x="513.420334375" xlink:href="#m48243eeccc" y="215.820334375"/>
      </g>
     </g>
     <g id="text_4">
      <!-- family_Exiguobacterium -->
      <defs>
       <path d="
M8.5 21.5781
L8.5 54.6875
L17.4844 54.6875
L17.4844 21.9219
Q17.4844 14.1562 20.5 10.2656
Q23.5312 6.39062 29.5938 6.39062
Q36.8594 6.39062 41.0781 11.0312
Q45.3125 15.6719 45.3125 23.6875
L45.3125 54.6875
L54.2969 54.6875
L54.2969 0
L45.3125 0
L45.3125 8.40625
Q42.0469 3.42188 37.7188 1
Q33.4062 -1.42188 27.6875 -1.42188
Q18.2656 -1.42188 13.375 4.4375
Q8.5 10.2969 8.5 21.5781
M31.1094 56
z
" id="DejaVuSans-75"/>
       <path d="
M50.9844 -16.6094
L50.9844 -23.5781
L-0.984375 -23.5781
L-0.984375 -16.6094
z
" id="DejaVuSans-5f"/>
       <path d="
M9.8125 72.9062
L55.9062 72.9062
L55.9062 64.5938
L19.6719 64.5938
L19.6719 43.0156
L54.3906 43.0156
L54.3906 34.7188
L19.6719 34.7188
L19.6719 8.29688
L56.7812 8.29688
L56.7812 0
L9.8125 0
z
" id="DejaVuSans-45"/>
       <path d="
M54.8906 54.6875
L35.1094 28.0781
L55.9062 0
L45.3125 0
L29.3906 21.4844
L13.4844 0
L2.875 0
L24.125 28.6094
L4.6875 54.6875
L15.2812 54.6875
L29.7812 35.2031
L44.2812 54.6875
z
" id="DejaVuSans-78"/>
       <path d="
M37.1094 75.9844
L37.1094 68.5
L28.5156 68.5
Q23.6875 68.5 21.7969 66.5469
Q19.9219 64.5938 19.9219 59.5156
L19.9219 54.6875
L34.7188 54.6875
L34.7188 47.7031
L19.9219 47.7031
L19.9219 0
L10.8906 0
L10.8906 47.7031
L2.29688 47.7031
L2.29688 54.6875
L10.8906 54.6875
L10.8906 58.5
Q10.8906 67.625 15.1406 71.7969
Q19.3906 75.9844 28.6094 75.9844
z
" id="DejaVuSans-66"/>
       <path d="
M45.4062 27.9844
Q45.4062 37.75 41.375 43.1094
Q37.3594 48.4844 30.0781 48.4844
Q22.8594 48.4844 18.8281 43.1094
Q14.7969 37.75 14.7969 27.9844
Q14.7969 18.2656 18.8281 12.8906
Q22.8594 7.51562 30.0781 7.51562
Q37.3594 7.51562 41.375 12.8906
Q45.4062 18.2656 45.4062 27.9844
M54.3906 6.78125
Q54.3906 -7.17188 48.1875 -13.9844
Q42 -20.7969 29.2031 -20.7969
Q24.4688 -20.7969 20.2656 -20.0938
Q16.0625 -19.3906 12.1094 -17.9219
L12.1094 -9.1875
Q16.0625 -11.3281 19.9219 -12.3438
Q23.7812 -13.375 27.7812 -13.375
Q36.625 -13.375 41.0156 -8.76562
Q45.4062 -4.15625 45.4062 5.17188
L45.4062 9.625
Q42.625 4.78125 38.2812 2.39062
Q33.9375 0 27.875 0
Q17.8281 0 11.6719 7.65625
Q5.51562 15.3281 5.51562 27.9844
Q5.51562 40.6719 11.6719 48.3281
Q17.8281 56 27.875 56
Q33.9375 56 38.2812 53.6094
Q42.625 51.2188 45.4062 46.3906
L45.4062 54.6875
L54.3906 54.6875
z
" id="DejaVuSans-67"/>
       <path d="
M48.6875 27.2969
Q48.6875 37.2031 44.6094 42.8438
Q40.5312 48.4844 33.4062 48.4844
Q26.2656 48.4844 22.1875 42.8438
Q18.1094 37.2031 18.1094 27.2969
Q18.1094 17.3906 22.1875 11.75
Q26.2656 6.10938 33.4062 6.10938
Q40.5312 6.10938 44.6094 11.75
Q48.6875 17.3906 48.6875 27.2969
M18.1094 46.3906
Q20.9531 51.2656 25.2656 53.625
Q29.5938 56 35.5938 56
Q45.5625 56 51.7812 48.0938
Q58.0156 40.1875 58.0156 27.2969
Q58.0156 14.4062 51.7812 6.48438
Q45.5625 -1.42188 35.5938 -1.42188
Q29.5938 -1.42188 25.2656 0.953125
Q20.9531 3.32812 18.1094 8.20312
L18.1094 0
L9.07812 0
L9.07812 75.9844
L18.1094 75.9844
z
" id="DejaVuSans-62"/>
      </defs>
      <g transform="translate(515.6685625 211.820334375)rotate(-90.0)scale(0.0858 -0.0858)">
       <use xlink:href="#DejaVuSans-66"/>
       <use x="35.205078125" xlink:href="#DejaVuSans-61"/>
       <use x="96.484375" xlink:href="#DejaVuSans-6d"/>
       <use x="193.896484375" xlink:href="#DejaVuSans-69"/>
       <use x="221.6796875" xlink:href="#DejaVuSans-6c"/>
       <use x="249.462890625" xlink:href="#DejaVuSans-79"/>
       <use x="308.642578125" xlink:href="#DejaVuSans-5f"/>
       <use x="358.642578125" xlink:href="#DejaVuSans-45"/>
       <use x="421.826171875" xlink:href="#DejaVuSans-78"/>
       <use x="481.005859375" xlink:href="#DejaVuSans-69"/>
       <use x="508.7890625" xlink:href="#DejaVuSans-67"/>
       <use x="572.265625" xlink:href="#DejaVuSans-75"/>
       <use x="635.64453125" xlink:href="#DejaVuSans-6f"/>
       <use x="696.826171875" xlink:href="#DejaVuSans-62"/>
       <use x="760.302734375" xlink:href="#DejaVuSans-61"/>
       <use x="821.58203125" xlink:href="#DejaVuSans-63"/>
       <use x="876.5625" xlink:href="#DejaVuSans-74"/>
       <use x="915.771484375" xlink:href="#DejaVuSans-65"/>
       <use x="977.294921875" xlink:href="#DejaVuSans-72"/>
       <use x="1018.40820312" xlink:href="#DejaVuSans-69"/>
       <use x="1046.19140625" xlink:href="#DejaVuSans-75"/>
       <use x="1109.5703125" xlink:href="#DejaVuSans-6d"/>
      </g>
     </g>
    </g>
    <g id="xtick_6">
     <g id="line2d_6">
      <g>
       <use style="stroke:#000000;stroke-width:0.5;" x="587.820334375" xlink:href="#m48243eeccc" y="215.820334375"/>
      </g>
     </g>
     <g id="text_5">
      <!-- family_uncultured sludge ... -->
      <defs>
       <path d="
M54.8906 33.0156
L54.8906 0
L45.9062 0
L45.9062 32.7188
Q45.9062 40.4844 42.875 44.3281
Q39.8438 48.1875 33.7969 48.1875
Q26.5156 48.1875 22.3125 43.5469
Q18.1094 38.9219 18.1094 30.9062
L18.1094 0
L9.07812 0
L9.07812 54.6875
L18.1094 54.6875
L18.1094 46.1875
Q21.3438 51.125 25.7031 53.5625
Q30.0781 56 35.7969 56
Q45.2188 56 50.0469 50.1719
Q54.8906 44.3438 54.8906 33.0156" id="DejaVuSans-6e"/>
      </defs>
      <g transform="translate(590.0685625 211.820334375)rotate(-90.0)scale(0.0858 -0.0858)">
       <use xlink:href="#DejaVuSans-66"/>
       <use x="35.205078125" xlink:href="#DejaVuSans-61"/>
       <use x="96.484375" xlink:href="#DejaVuSans-6d"/>
       <use x="193.896484375" xlink:href="#DejaVuSans-69"/>
       <use x="221.6796875" xlink:href="#DejaVuSans-6c"/>
       <use x="249.462890625" xlink:href="#DejaVuSans-79"/>
       <use x="308.642578125" xlink:href="#DejaVuSans-5f"/>
       <use x="358.642578125" xlink:href="#DejaVuSans-75"/>
       <use x="422.021484375" xlink:href="#DejaVuSans-6e"/>
       <use x="485.400390625" xlink:href="#DejaVuSans-63"/>
       <use x="540.380859375" xlink:href="#DejaVuSans-75"/>
       <use x="603.759765625" xlink:href="#DejaVuSans-6c"/>
       <use x="631.54296875" xlink:href="#DejaVuSans-74"/>
       <use x="670.751953125" xlink:href="#DejaVuSans-75"/>
       <use x="734.130859375" xlink:href="#DejaVuSans-72"/>
       <use x="772.994140625" xlink:href="#DejaVuSans-65"/>
       <use x="834.517578125" xlink:href="#DejaVuSans-64"/>
       <use x="897.994140625" xlink:href="#DejaVuSans-20"/>
       <use x="929.78125" xlink:href="#DejaVuSans-73"/>
       <use x="981.880859375" xlink:href="#DejaVuSans-6c"/>
       <use x="1009.6640625" xlink:href="#DejaVuSans-75"/>
       <use x="1073.04296875" xlink:href="#DejaVuSans-64"/>
       <use x="1136.51953125" xlink:href="#DejaVuSans-67"/>
       <use x="1199.99609375" xlink:href="#DejaVuSans-65"/>
       <use x="1261.51953125" xlink:href="#DejaVuSans-20"/>
       <use x="1293.30664062" xlink:href="#DejaVuSans-2e"/>
       <use x="1325.09375" xlink:href="#DejaVuSans-2e"/>
       <use x="1356.88085938" xlink:href="#DejaVuSans-2e"/>
      </g>
     </g>
    </g>
    <g id="xtick_7">
     <g id="line2d_7">
      <g>
       <use style="stroke:#000000;stroke-width:0.5;" x="662.220334375" xlink:href="#m48243eeccc" y="215.820334375"/>
      </g>
     </g>
     <g id="text_6">
      <!-- unassigned -->
      <g transform="translate(664.587878125 211.820334375)rotate(-90.0)scale(0.0858 -0.0858)">
       <use xlink:href="#DejaVuSans-75"/>
       <use x="63.37890625" xlink:href="#DejaVuSans-6e"/>
       <use x="126.7578125" xlink:href="#DejaVuSans-61"/>
       <use x="188.037109375" xlink:href="#DejaVuSans-73"/>
       <use x="240.13671875" xlink:href="#DejaVuSans-73"/>
       <use x="292.236328125" xlink:href="#DejaVuSans-69"/>
       <use x="320.01953125" xlink:href="#DejaVuSans-67"/>
       <use x="383.49609375" xlink:href="#DejaVuSans-6e"/>
       <use x="446.875" xlink:href="#DejaVuSans-65"/>
       <use x="508.3984375" xlink:href="#DejaVuSans-64"/>
      </g>
     </g>
    </g>
    <g id="xtick_8">
     <g id="line2d_8">
      <defs>
       <path d="
M0 0
L0 -8.58" id="md0a5e462ba" style="stroke:#b2b2b2;stroke-width:0.5;"/>
      </defs>
      <g>
       <use style="fill:#b2b2b2;stroke:#b2b2b2;stroke-width:0.5;" x="253.020334375" xlink:href="#md0a5e462ba" y="215.820334375"/>
      </g>
     </g>
    </g>
    <g id="xtick_9">
     <g id="line2d_9">
      <g>
       <use style="fill:#b2b2b2;stroke:#b2b2b2;stroke-width:0.5;" x="327.420334375" xlink:href="#md0a5e462ba" y="215.820334375"/>
      </g>
     </g>
    </g>
    <g id="xtick_10">
     <g id="line2d_10">
      <g>
       <use style="fill:#b2b2b2;stroke:#b2b2b2;stroke-width:0.5;" x="401.820334375" xlink:href="#md0a5e462ba" y="215.820334375"/>
      </g>
     </g>
    </g>
    <g id="xtick_11">
     <g id="line2d_11">
      <g>
       <use style="fill:#b2b2b2;stroke:#b2b2b2;stroke-width:0.5;" x="476.220334375" xlink:href="#md0a5e462ba" y="215.820334375"/>
      </g>
     </g>
    </g>
    <g id="xtick_12">
     <g id="line2d_12">
      <g>
       <use style="fill:#b2b2b2;stroke:#b2b2b2;stroke-width:0.5;" x="550.620334375" xlink:href="#md0a5e462ba" y="215.820334375"/>
      </g>
     </g>
    </g>
    <g id="xtick_13">
     <g id="line2d_13">
      <g>
       <use style="fill:#b2b2b2;stroke:#b2b2b2;stroke-width:0.5;" x="625.020334375" xlink:href="#md0a5e462ba" y="215.820334375"/>
      </g>
     </g>
    </g>
    <g id="text_7">
     <!-- family -->
     <g transform="translate(420.818771875 545.978459375)scale(0.12 -0.12)">
      <use xlink:href="#DejaVuSans-66"/>
      <use x="35.205078125" xlink:href="#DejaVuSans-61"/>
      <use x="96.484375" xlink:href="#DejaVuSans-6d"/>
      <use x="193.896484375" xlink:href="#DejaVuSans-69"/>
      <use x="221.6796875" xlink:href="#DejaVuSans-6c"/>
      <use x="249.462890625" xlink:href="#DejaVuSans-79"/>
     </g>
    </g>
   </g>
   <g id="matplotlib.axis_2">
    <g id="ytick_1">
     <g id="line2d_14">
      <g>
       <use style="stroke:#000000;stroke-width:0.5;" x="215.820334375" xlink:href="#m48243eeccc" y="526.860334375"/>
      </g>
     </g>
    </g>
    <g id="ytick_2">
     <g id="line2d_15">
      <g>
       <use style="stroke:#000000;stroke-width:0.5;" x="215.820334375" xlink:href="#m48243eeccc" y="475.020334375"/>
      </g>
     </g>
     <g id="text_8">
      <!-- Clostridiales Family XIX.... -->
      <g transform="translate(101.8957875 477.387878125)scale(0.0858 -0.0858)">
       <use xlink:href="#DejaVuSans-43"/>
       <use x="69.82421875" xlink:href="#DejaVuSans-6c"/>
       <use x="97.607421875" xlink:href="#DejaVuSans-6f"/>
       <use x="158.7890625" xlink:href="#DejaVuSans-73"/>
       <use x="210.888671875" xlink:href="#DejaVuSans-74"/>
       <use x="250.09765625" xlink:href="#DejaVuSans-72"/>
       <use x="291.2109375" xlink:href="#DejaVuSans-69"/>
       <use x="318.994140625" xlink:href="#DejaVuSans-64"/>
       <use x="382.470703125" xlink:href="#DejaVuSans-69"/>
       <use x="410.25390625" xlink:href="#DejaVuSans-61"/>
       <use x="471.533203125" xlink:href="#DejaVuSans-6c"/>
       <use x="499.31640625" xlink:href="#DejaVuSans-65"/>
       <use x="560.83984375" xlink:href="#DejaVuSans-73"/>
       <use x="612.939453125" xlink:href="#DejaVuSans-20"/>
       <use x="644.7265625" xlink:href="#DejaVuSans-46"/>
       <use x="693.12109375" xlink:href="#DejaVuSans-61"/>
       <use x="754.400390625" xlink:href="#DejaVuSans-6d"/>
       <use x="851.8125" xlink:href="#DejaVuSans-69"/>
       <use x="879.595703125" xlink:href="#DejaVuSans-6c"/>
       <use x="907.37890625" xlink:href="#DejaVuSans-79"/>
       <use x="966.55859375" xlink:href="#DejaVuSans-20"/>
       <use x="998.345703125" xlink:href="#DejaVuSans-58"/>
       <use x="1066.8515625" xlink:href="#DejaVuSans-49"/>
       <use x="1096.34375" xlink:href="#DejaVuSans-58"/>
       <use x="1164.84960938" xlink:href="#DejaVuSans-2e"/>
       <use x="1196.63671875" xlink:href="#DejaVuSans-2e"/>
       <use x="1228.42382812" xlink:href="#DejaVuSans-2e"/>
       <use x="1260.2109375" xlink:href="#DejaVuSans-2e"/>
      </g>
     </g>
    </g>
    <g id="ytick_3">
     <g id="line2d_16">
      <g>
       <use style="stroke:#000000;stroke-width:0.5;" x="215.820334375" xlink:href="#m48243eeccc" y="423.180334375"/>
      </g>
     </g>
     <g id="text_9">
      <!-- Clostridiales Family XVI.... -->
      <g transform="translate(101.90383125 425.547878125)scale(0.0858 -0.0858)">
       <use xlink:href="#DejaVuSans-43"/>
       <use x="69.82421875" xlink:href="#DejaVuSans-6c"/>
       <use x="97.607421875" xlink:href="#DejaVuSans-6f"/>
       <use x="158.7890625" xlink:href="#DejaVuSans-73"/>
       <use x="210.888671875" xlink:href="#DejaVuSans-74"/>
       <use x="250.09765625" xlink:href="#DejaVuSans-72"/>
       <use x="291.2109375" xlink:href="#DejaVuSans-69"/>
       <use x="318.994140625" xlink:href="#DejaVuSans-64"/>
       <use x="382.470703125" xlink:href="#DejaVuSans-69"/>
       <use x="410.25390625" xlink:href="#DejaVuSans-61"/>
       <use x="471.533203125" xlink:href="#DejaVuSans-6c"/>
       <use x="499.31640625" xlink:href="#DejaVuSans-65"/>
       <use x="560.83984375" xlink:href="#DejaVuSans-73"/>
       <use x="612.939453125" xlink:href="#DejaVuSans-20"/>
       <use x="644.7265625" xlink:href="#DejaVuSans-46"/>
       <use x="693.12109375" xlink:href="#DejaVuSans-61"/>
       <use x="754.400390625" xlink:href="#DejaVuSans-6d"/>
       <use x="851.8125" xlink:href="#DejaVuSans-69"/>
       <use x="879.595703125" xlink:href="#DejaVuSans-6c"/>
       <use x="907.37890625" xlink:href="#DejaVuSans-79"/>
       <use x="966.55859375" xlink:href="#DejaVuSans-20"/>
       <use x="998.345703125" xlink:href="#DejaVuSans-58"/>
       <use x="1066.8515625" xlink:href="#DejaVuSans-56"/>
       <use x="1135.25976562" xlink:href="#DejaVuSans-49"/>
       <use x="1164.75195312" xlink:href="#DejaVuSans-2e"/>
       <use x="1196.5390625" xlink:href="#DejaVuSans-2e"/>
       <use x="1228.32617188" xlink:href="#DejaVuSans-2e"/>
       <use x="1260.11328125" xlink:href="#DejaVuSans-2e"/>
      </g>
     </g>
    </g>
    <g id="ytick_4">
     <g id="line2d_17">
      <g>
       <use style="stroke:#000000;stroke-width:0.5;" x="215.820334375" xlink:href="#m48243eeccc" y="371.340334375"/>
      </g>
     </g>
     <g id="text_10">
      <!-- Peptostreptococcaceae -->
      <g transform="translate(113.214684375 373.707878125)scale(0.0858 -0.0858)">
       <use xlink:href="#DejaVuSans-50"/>
       <use x="56.677734375" xlink:href="#DejaVuSans-65"/>
       <use x="118.201171875" xlink:href="#DejaVuSans-70"/>
       <use x="181.677734375" xlink:href="#DejaVuSans-74"/>
       <use x="220.88671875" xlink:href="#DejaVuSans-6f"/>
       <use x="282.068359375" xlink:href="#DejaVuSans-73"/>
       <use x="334.16796875" xlink:href="#DejaVuSans-74"/>
       <use x="373.376953125" xlink:href="#DejaVuSans-72"/>
       <use x="412.240234375" xlink:href="#DejaVuSans-65"/>
       <use x="473.763671875" xlink:href="#DejaVuSans-70"/>
       <use x="537.240234375" xlink:href="#DejaVuSans-74"/>
       <use x="576.44921875" xlink:href="#DejaVuSans-6f"/>
       <use x="637.630859375" xlink:href="#DejaVuSans-63"/>
       <use x="692.611328125" xlink:href="#DejaVuSans-6f"/>
       <use x="753.79296875" xlink:href="#DejaVuSans-63"/>
       <use x="808.7734375" xlink:href="#DejaVuSans-63"/>
       <use x="863.75390625" xlink:href="#DejaVuSans-61"/>
       <use x="925.033203125" xlink:href="#DejaVuSans-63"/>
       <use x="980.013671875" xlink:href="#DejaVuSans-65"/>
       <use x="1041.53710938" xlink:href="#DejaVuSans-61"/>
       <use x="1102.81640625" xlink:href="#DejaVuSans-65"/>
      </g>
     </g>
    </g>
    <g id="ytick_5">
     <g id="line2d_18">
      <g>
       <use style="stroke:#000000;stroke-width:0.5;" x="215.820334375" xlink:href="#m48243eeccc" y="319.500334375"/>
      </g>
     </g>
     <g id="text_11">
      <!-- family_Exiguobacterium -->
      <g transform="translate(109.184765625 321.7485625)scale(0.0858 -0.0858)">
       <use xlink:href="#DejaVuSans-66"/>
       <use x="35.205078125" xlink:href="#DejaVuSans-61"/>
       <use x="96.484375" xlink:href="#DejaVuSans-6d"/>
       <use x="193.896484375" xlink:href="#DejaVuSans-69"/>
       <use x="221.6796875" xlink:href="#DejaVuSans-6c"/>
       <use x="249.462890625" xlink:href="#DejaVuSans-79"/>
       <use x="308.642578125" xlink:href="#DejaVuSans-5f"/>
       <use x="358.642578125" xlink:href="#DejaVuSans-45"/>
       <use x="421.826171875" xlink:href="#DejaVuSans-78"/>
       <use x="481.005859375" xlink:href="#DejaVuSans-69"/>
       <use x="508.7890625" xlink:href="#DejaVuSans-67"/>
       <use x="572.265625" xlink:href="#DejaVuSans-75"/>
       <use x="635.64453125" xlink:href="#DejaVuSans-6f"/>
       <use x="696.826171875" xlink:href="#DejaVuSans-62"/>
       <use x="760.302734375" xlink:href="#DejaVuSans-61"/>
       <use x="821.58203125" xlink:href="#DejaVuSans-63"/>
       <use x="876.5625" xlink:href="#DejaVuSans-74"/>
       <use x="915.771484375" xlink:href="#DejaVuSans-65"/>
       <use x="977.294921875" xlink:href="#DejaVuSans-72"/>
       <use x="1018.40820312" xlink:href="#DejaVuSans-69"/>
       <use x="1046.19140625" xlink:href="#DejaVuSans-75"/>
       <use x="1109.5703125" xlink:href="#DejaVuSans-6d"/>
      </g>
     </g>
    </g>
    <g id="ytick_6">
     <g id="line2d_19">
      <g>
       <use style="stroke:#000000;stroke-width:0.5;" x="215.820334375" xlink:href="#m48243eeccc" y="267.660334375"/>
      </g>
     </g>
     <g id="text_12">
      <!-- family_uncultured sludge ... -->
      <g transform="translate(93.6 269.9085625)scale(0.0858 -0.0858)">
       <use xlink:href="#DejaVuSans-66"/>
       <use x="35.205078125" xlink:href="#DejaVuSans-61"/>
       <use x="96.484375" xlink:href="#DejaVuSans-6d"/>
       <use x="193.896484375" xlink:href="#DejaVuSans-69"/>
       <use x="221.6796875" xlink:href="#DejaVuSans-6c"/>
       <use x="249.462890625" xlink:href="#DejaVuSans-79"/>
       <use x="308.642578125" xlink:href="#DejaVuSans-5f"/>
       <use x="358.642578125" xlink:href="#DejaVuSans-75"/>
       <use x="422.021484375" xlink:href="#DejaVuSans-6e"/>
       <use x="485.400390625" xlink:href="#DejaVuSans-63"/>
       <use x="540.380859375" xlink:href="#DejaVuSans-75"/>
       <use x="603.759765625" xlink:href="#DejaVuSans-6c"/>
       <use x="631.54296875" xlink:href="#DejaVuSans-74"/>
       <use x="670.751953125" xlink:href="#DejaVuSans-75"/>
       <use x="734.130859375" xlink:href="#DejaVuSans-72"/>
       <use x="772.994140625" xlink:href="#DejaVuSans-65"/>
       <use x="834.517578125" xlink:href="#DejaVuSans-64"/>
       <use x="897.994140625" xlink:href="#DejaVuSans-20"/>
       <use x="929.78125" xlink:href="#DejaVuSans-73"/>
       <use x="981.880859375" xlink:href="#DejaVuSans-6c"/>
       <use x="1009.6640625" xlink:href="#DejaVuSans-75"/>
       <use x="1073.04296875" xlink:href="#DejaVuSans-64"/>
       <use x="1136.51953125" xlink:href="#DejaVuSans-67"/>
       <use x="1199.99609375" xlink:href="#DejaVuSans-65"/>
       <use x="1261.51953125" xlink:href="#DejaVuSans-20"/>
       <use x="1293.30664062" xlink:href="#DejaVuSans-2e"/>
       <use x="1325.09375" xlink:href="#DejaVuSans-2e"/>
       <use x="1356.88085938" xlink:href="#DejaVuSans-2e"/>
      </g>
     </g>
    </g>
    <g id="ytick_7">
     <g id="line2d_20">
      <g>
       <use style="stroke:#000000;stroke-width:0.5;" x="215.820334375" xlink:href="#m48243eeccc" y="215.820334375"/>
      </g>
     </g>
     <g id="text_13">
      <!-- unassigned -->
      <g transform="translate(164.263003125 218.187878125)scale(0.0858 -0.0858)">
       <use xlink:href="#DejaVuSans-75"/>
       <use x="63.37890625" xlink:href="#DejaVuSans-6e"/>
       <use x="126.7578125" xlink:href="#DejaVuSans-61"/>
       <use x="188.037109375" xlink:href="#DejaVuSans-73"/>
       <use x="240.13671875" xlink:href="#DejaVuSans-73"/>
       <use x="292.236328125" xlink:href="#DejaVuSans-69"/>
       <use x="320.01953125" xlink:href="#DejaVuSans-67"/>
       <use x="383.49609375" xlink:href="#DejaVuSans-6e"/>
       <use x="446.875" xlink:href="#DejaVuSans-65"/>
       <use x="508.3984375" xlink:href="#DejaVuSans-64"/>
      </g>
     </g>
    </g>
    <g id="ytick_8">
     <g id="line2d_21">
      <defs>
       <path d="
M0 0
L-8.58 0" id="m9c7c415a79" style="stroke:#b2b2b2;stroke-width:0.5;"/>
      </defs>
      <g>
       <use style="fill:#b2b2b2;stroke:#b2b2b2;stroke-width:0.5;" x="215.820334375" xlink:href="#m9c7c415a79" y="500.940334375"/>
      </g>
     </g>
    </g>
    <g id="ytick_9">
     <g id="line2d_22">
      <g>
       <use style="fill:#b2b2b2;stroke:#b2b2b2;stroke-width:0.5;" x="215.820334375" xlink:href="#m9c7c415a79" y="449.100334375"/>
      </g>
     </g>
    </g>
    <g id="ytick_10">
     <g id="line2d_23">
      <g>
       <use style="fill:#b2b2b2;stroke:#b2b2b2;stroke-width:0.5;" x="215.820334375" xlink:href="#m9c7c415a79" y="397.260334375"/>
      </g>
     </g>
    </g>
    <g id="ytick_11">
     <g id="line2d_24">
      <g>
       <use style="fill:#b2b2b2;stroke:#b2b2b2;stroke-width:0.5;" x="215.820334375" xlink:href="#m9c7c415a79" y="345.420334375"/>
      </g>
     </g>
    </g>
    <g id="ytick_12">
     <g id="line2d_25">
      <g>
       <use style="fill:#b2b2b2;stroke:#b2b2b2;stroke-width:0.5;" x="215.820334375" xlink:href="#m9c7c415a79" y="293.580334375"/>
      </g>
     </g>
    </g>
    <g id="ytick_13">
     <g id="line2d_26">
      <g>
       <use style="fill:#b2b2b2;stroke:#b2b2b2;stroke-width:0.5;" x="215.820334375" xlink:href="#m9c7c415a79" y="241.740334375"/>
      </g>
     </g>
    </g>
   </g>
  </g>
 </g>
</svg>
