<?xml version="1.0" encoding="utf-8" standalone="no"?>
<!DOCTYPE svg PUBLIC "-//W3C//DTD SVG 1.1//EN"
  "http://www.w3.org/Graphics/SVG/1.1/DTD/svg11.dtd">
<!-- Created with matplotlib (http://matplotlib.org/) -->
<svg height="651pt" version="1.1" viewBox="0 0 769 651" width="769pt" xmlns="http://www.w3.org/2000/svg" xmlns:xlink="http://www.w3.org/1999/xlink">
 <defs>
  <style type="text/css">
*{stroke-linecap:butt;stroke-linejoin:round;}
  </style>
 </defs>
 <g id="figure_1">
  <g id="patch_1">
   <path d="
M0 651.242
L769.082 651.242
L769.082 0
L0 0
z
" style="fill:none;"/>
  </g>
  <g id="axes_1">
   <g id="patch_2">
    <path d="
M224.988 536.028
L671.388 536.028
L671.388 224.988
L224.988 224.988
z
" style="fill:none;"/>
   </g>
   <g id="patch_3">
    <path d="
M224.988 224.988
L671.388 224.988" style="fill:none;stroke:#000000;stroke-linecap:square;stroke-linejoin:miter;"/>
   </g>
   <g id="patch_4">
    <path d="
M671.388 536.028
L671.388 224.988" style="fill:none;stroke:#000000;stroke-linecap:square;stroke-linejoin:miter;"/>
   </g>
   <g id="patch_5">
    <path d="
M224.988 536.028
L671.388 536.028" style="fill:none;stroke:#000000;stroke-linecap:square;stroke-linejoin:miter;"/>
   </g>
   <g id="patch_6">
    <path d="
M224.988 536.028
L224.988 224.988" style="fill:none;stroke:#000000;stroke-linecap:square;stroke-linejoin:miter;"/>
   </g>
   <g id="matplotlib.axis_1">
    <g id="xtick_1">
     <g id="line2d_1">
      <defs>
       <path d="
M0 0
L0 0" id="m48243eeccc" style="stroke:#000000;stroke-width:0.5;"/>
      </defs>
      <g>
       <use style="stroke:#000000;stroke-width:0.5;" x="224.987771875" xlink:href="#m48243eeccc" y="224.987771875"/>
      </g>
     </g>
    </g>
    <g id="xtick_2">
     <g id="line2d_2">
      <g>
       <use style="stroke:#000000;stroke-width:0.5;" x="280.787771875" xlink:href="#m48243eeccc" y="224.987771875"/>
      </g>
     </g>
     <g id="text_1">
      <!-- Acidimicrobiales -->
      <defs>
       <path d="
M56.2031 29.5938
L56.2031 25.2031
L14.8906 25.2031
Q15.4844 15.9219 20.4844 11.0625
Q25.4844 6.20312 34.4219 6.20312
Q39.5938 6.20312 44.4531 7.46875
Q49.3125 8.73438 54.1094 11.2812
L54.1094 2.78125
Q49.2656 0.734375 44.1875 -0.34375
Q39.1094 -1.42188 33.8906 -1.42188
Q20.7969 -1.42188 13.1562 6.1875
Q5.51562 13.8125 5.51562 26.8125
Q5.51562 40.2344 12.7656 48.1094
Q20.0156 56 32.3281 56
Q43.3594 56 49.7812 48.8906
Q56.2031 41.7969 56.2031 29.5938
M47.2188 32.2344
Q47.125 39.5938 43.0938 43.9844
Q39.0625 48.3906 32.4219 48.3906
Q24.9062 48.3906 20.3906 44.1406
Q15.875 39.8906 15.1875 32.1719
z
" id="DejaVuSans-65"/>
       <path d="
M30.6094 48.3906
Q23.3906 48.3906 19.1875 42.75
Q14.9844 37.1094 14.9844 27.2969
Q14.9844 17.4844 19.1562 11.8438
Q23.3438 6.20312 30.6094 6.20312
Q37.7969 6.20312 41.9844 11.8594
Q46.1875 17.5312 46.1875 27.2969
Q46.1875 37.0156 41.9844 42.7031
Q37.7969 48.3906 30.6094 48.3906
M30.6094 56
Q42.3281 56 49.0156 48.375
Q55.7188 40.7656 55.7188 27.2969
Q55.7188 13.875 49.0156 6.21875
Q42.3281 -1.42188 30.6094 -1.42188
Q18.8438 -1.42188 12.1719 6.21875
Q5.51562 13.875 5.51562 27.2969
Q5.51562 40.7656 12.1719 48.375
Q18.8438 56 30.6094 56" id="DejaVuSans-6f"/>
       <path d="
M52 44.1875
Q55.375 50.25 60.0625 53.125
Q64.75 56 71.0938 56
Q79.6406 56 84.2812 50.0156
Q88.9219 44.0469 88.9219 33.0156
L88.9219 0
L79.8906 0
L79.8906 32.7188
Q79.8906 40.5781 77.0938 44.375
Q74.3125 48.1875 68.6094 48.1875
Q61.625 48.1875 57.5625 43.5469
Q53.5156 38.9219 53.5156 30.9062
L53.5156 0
L44.4844 0
L44.4844 32.7188
Q44.4844 40.625 41.7031 44.4062
Q38.9219 48.1875 33.1094 48.1875
Q26.2188 48.1875 22.1562 43.5312
Q18.1094 38.875 18.1094 30.9062
L18.1094 0
L9.07812 0
L9.07812 54.6875
L18.1094 54.6875
L18.1094 46.1875
Q21.1875 51.2188 25.4844 53.6094
Q29.7812 56 35.6875 56
Q41.6562 56 45.8281 52.9688
Q50 49.9531 52 44.1875" id="DejaVuSans-6d"/>
       <path d="
M9.42188 75.9844
L18.4062 75.9844
L18.4062 0
L9.42188 0
z
" id="DejaVuSans-6c"/>
       <path d="
M34.1875 63.1875
L20.7969 26.9062
L47.6094 26.9062
z

M28.6094 72.9062
L39.7969 72.9062
L67.5781 0
L57.3281 0
L50.6875 18.7031
L17.8281 18.7031
L11.1875 0
L0.78125 0
z
" id="DejaVuSans-41"/>
       <path d="
M9.42188 54.6875
L18.4062 54.6875
L18.4062 0
L9.42188 0
z

M9.42188 75.9844
L18.4062 75.9844
L18.4062 64.5938
L9.42188 64.5938
z
" id="DejaVuSans-69"/>
       <path d="
M45.4062 46.3906
L45.4062 75.9844
L54.3906 75.9844
L54.3906 0
L45.4062 0
L45.4062 8.20312
Q42.5781 3.32812 38.25 0.953125
Q33.9375 -1.42188 27.875 -1.42188
Q17.9688 -1.42188 11.7344 6.48438
Q5.51562 14.4062 5.51562 27.2969
Q5.51562 40.1875 11.7344 48.0938
Q17.9688 56 27.875 56
Q33.9375 56 38.25 53.625
Q42.5781 51.2656 45.4062 46.3906
M14.7969 27.2969
Q14.7969 17.3906 18.875 11.75
Q22.9531 6.10938 30.0781 6.10938
Q37.2031 6.10938 41.2969 11.75
Q45.4062 17.3906 45.4062 27.2969
Q45.4062 37.2031 41.2969 42.8438
Q37.2031 48.4844 30.0781 48.4844
Q22.9531 48.4844 18.875 42.8438
Q14.7969 37.2031 14.7969 27.2969" id="DejaVuSans-64"/>
       <path d="
M34.2812 27.4844
Q23.3906 27.4844 19.1875 25
Q14.9844 22.5156 14.9844 16.5
Q14.9844 11.7188 18.1406 8.90625
Q21.2969 6.10938 26.7031 6.10938
Q34.1875 6.10938 38.7031 11.4062
Q43.2188 16.7031 43.2188 25.4844
L43.2188 27.4844
z

M52.2031 31.2031
L52.2031 0
L43.2188 0
L43.2188 8.29688
Q40.1406 3.32812 35.5469 0.953125
Q30.9531 -1.42188 24.3125 -1.42188
Q15.9219 -1.42188 10.9531 3.29688
Q6 8.01562 6 15.9219
Q6 25.1406 12.1719 29.8281
Q18.3594 34.5156 30.6094 34.5156
L43.2188 34.5156
L43.2188 35.4062
Q43.2188 41.6094 39.1406 45
Q35.0625 48.3906 27.6875 48.3906
Q23 48.3906 18.5469 47.2656
Q14.1094 46.1406 10.0156 43.8906
L10.0156 52.2031
Q14.9375 54.1094 19.5781 55.0469
Q24.2188 56 28.6094 56
Q40.4844 56 46.3438 49.8438
Q52.2031 43.7031 52.2031 31.2031" id="DejaVuSans-61"/>
       <path d="
M48.6875 27.2969
Q48.6875 37.2031 44.6094 42.8438
Q40.5312 48.4844 33.4062 48.4844
Q26.2656 48.4844 22.1875 42.8438
Q18.1094 37.2031 18.1094 27.2969
Q18.1094 17.3906 22.1875 11.75
Q26.2656 6.10938 33.4062 6.10938
Q40.5312 6.10938 44.6094 11.75
Q48.6875 17.3906 48.6875 27.2969
M18.1094 46.3906
Q20.9531 51.2656 25.2656 53.625
Q29.5938 56 35.5938 56
Q45.5625 56 51.7812 48.0938
Q58.0156 40.1875 58.0156 27.2969
Q58.0156 14.4062 51.7812 6.48438
Q45.5625 -1.42188 35.5938 -1.42188
Q29.5938 -1.42188 25.2656 0.953125
Q20.9531 3.32812 18.1094 8.20312
L18.1094 0
L9.07812 0
L9.07812 75.9844
L18.1094 75.9844
z
" id="DejaVuSans-62"/>
       <path d="
M48.7812 52.5938
L48.7812 44.1875
Q44.9688 46.2969 41.1406 47.3438
Q37.3125 48.3906 33.4062 48.3906
Q24.6562 48.3906 19.8125 42.8438
Q14.9844 37.3125 14.9844 27.2969
Q14.9844 17.2812 19.8125 11.7344
Q24.6562 6.20312 33.4062 6.20312
Q37.3125 6.20312 41.1406 7.25
Q44.9688 8.29688 48.7812 10.4062
L48.7812 2.09375
Q45.0156 0.34375 40.9844 -0.53125
Q36.9688 -1.42188 32.4219 -1.42188
Q20.0625 -1.42188 12.7812 6.34375
Q5.51562 14.1094 5.51562 27.2969
Q5.51562 40.6719 12.8594 48.3281
Q20.2188 56 33.0156 56
Q37.1562 56 41.1094 55.1406
Q45.0625 54.2969 48.7812 52.5938" id="DejaVuSans-63"/>
       <path d="
M44.2812 53.0781
L44.2812 44.5781
Q40.4844 46.5312 36.375 47.5
Q32.2812 48.4844 27.875 48.4844
Q21.1875 48.4844 17.8438 46.4375
Q14.5 44.3906 14.5 40.2812
Q14.5 37.1562 16.8906 35.375
Q19.2812 33.5938 26.5156 31.9844
L29.5938 31.2969
Q39.1562 29.25 43.1875 25.5156
Q47.2188 21.7812 47.2188 15.0938
Q47.2188 7.46875 41.1875 3.01562
Q35.1562 -1.42188 24.6094 -1.42188
Q20.2188 -1.42188 15.4531 -0.5625
Q10.6875 0.296875 5.42188 2
L5.42188 11.2812
Q10.4062 8.6875 15.2344 7.39062
Q20.0625 6.10938 24.8125 6.10938
Q31.1562 6.10938 34.5625 8.28125
Q37.9844 10.4531 37.9844 14.4062
Q37.9844 18.0625 35.5156 20.0156
Q33.0625 21.9688 24.7031 23.7812
L21.5781 24.5156
Q13.2344 26.2656 9.51562 29.9062
Q5.8125 33.5469 5.8125 39.8906
Q5.8125 47.6094 11.2812 51.7969
Q16.75 56 26.8125 56
Q31.7812 56 36.1719 55.2656
Q40.5781 54.5469 44.2812 53.0781" id="DejaVuSans-73"/>
       <path d="
M41.1094 46.2969
Q39.5938 47.1719 37.8125 47.5781
Q36.0312 48 33.8906 48
Q26.2656 48 22.1875 43.0469
Q18.1094 38.0938 18.1094 28.8125
L18.1094 0
L9.07812 0
L9.07812 54.6875
L18.1094 54.6875
L18.1094 46.1875
Q20.9531 51.1719 25.4844 53.5781
Q30.0312 56 36.5312 56
Q37.4531 56 38.5781 55.875
Q39.7031 55.7656 41.0625 55.5156
z
" id="DejaVuSans-72"/>
      </defs>
      <g transform="translate(283.122203125 220.987771875)rotate(-90.0)scale(0.0846 -0.0846)">
       <use xlink:href="#DejaVuSans-41"/>
       <use x="66.658203125" xlink:href="#DejaVuSans-63"/>
       <use x="121.638671875" xlink:href="#DejaVuSans-69"/>
       <use x="149.421875" xlink:href="#DejaVuSans-64"/>
       <use x="212.8984375" xlink:href="#DejaVuSans-69"/>
       <use x="240.681640625" xlink:href="#DejaVuSans-6d"/>
       <use x="338.09375" xlink:href="#DejaVuSans-69"/>
       <use x="365.876953125" xlink:href="#DejaVuSans-63"/>
       <use x="420.857421875" xlink:href="#DejaVuSans-72"/>
       <use x="459.720703125" xlink:href="#DejaVuSans-6f"/>
       <use x="520.90234375" xlink:href="#DejaVuSans-62"/>
       <use x="584.37890625" xlink:href="#DejaVuSans-69"/>
       <use x="612.162109375" xlink:href="#DejaVuSans-61"/>
       <use x="673.44140625" xlink:href="#DejaVuSans-6c"/>
       <use x="701.224609375" xlink:href="#DejaVuSans-65"/>
       <use x="762.748046875" xlink:href="#DejaVuSans-73"/>
      </g>
     </g>
    </g>
    <g id="xtick_3">
     <g id="line2d_3">
      <g>
       <use style="stroke:#000000;stroke-width:0.5;" x="336.587771875" xlink:href="#m48243eeccc" y="224.987771875"/>
      </g>
     </g>
     <g id="text_2">
      <!-- Actinomycetales -->
      <defs>
       <path d="
M18.3125 70.2188
L18.3125 54.6875
L36.8125 54.6875
L36.8125 47.7031
L18.3125 47.7031
L18.3125 18.0156
Q18.3125 11.3281 20.1406 9.42188
Q21.9688 7.51562 27.5938 7.51562
L36.8125 7.51562
L36.8125 0
L27.5938 0
Q17.1875 0 13.2344 3.875
Q9.28125 7.76562 9.28125 18.0156
L9.28125 47.7031
L2.6875 47.7031
L2.6875 54.6875
L9.28125 54.6875
L9.28125 70.2188
z
" id="DejaVuSans-74"/>
       <path d="
M54.8906 33.0156
L54.8906 0
L45.9062 0
L45.9062 32.7188
Q45.9062 40.4844 42.875 44.3281
Q39.8438 48.1875 33.7969 48.1875
Q26.5156 48.1875 22.3125 43.5469
Q18.1094 38.9219 18.1094 30.9062
L18.1094 0
L9.07812 0
L9.07812 54.6875
L18.1094 54.6875
L18.1094 46.1875
Q21.3438 51.125 25.7031 53.5625
Q30.0781 56 35.7969 56
Q45.2188 56 50.0469 50.1719
Q54.8906 44.3438 54.8906 33.0156" id="DejaVuSans-6e"/>
       <path d="
M32.1719 -5.07812
Q28.375 -14.8438 24.75 -17.8125
Q21.1406 -20.7969 15.0938 -20.7969
L7.90625 -20.7969
L7.90625 -13.2812
L13.1875 -13.2812
Q16.8906 -13.2812 18.9375 -11.5156
Q21 -9.76562 23.4844 -3.21875
L25.0938 0.875
L2.98438 54.6875
L12.5 54.6875
L29.5938 11.9219
L46.6875 54.6875
L56.2031 54.6875
z
" id="DejaVuSans-79"/>
      </defs>
      <g transform="translate(338.922203125 220.987771875)rotate(-90.0)scale(0.0846 -0.0846)">
       <use xlink:href="#DejaVuSans-41"/>
       <use x="66.658203125" xlink:href="#DejaVuSans-63"/>
       <use x="121.638671875" xlink:href="#DejaVuSans-74"/>
       <use x="160.84765625" xlink:href="#DejaVuSans-69"/>
       <use x="188.630859375" xlink:href="#DejaVuSans-6e"/>
       <use x="252.009765625" xlink:href="#DejaVuSans-6f"/>
       <use x="313.19140625" xlink:href="#DejaVuSans-6d"/>
       <use x="410.603515625" xlink:href="#DejaVuSans-79"/>
       <use x="469.783203125" xlink:href="#DejaVuSans-63"/>
       <use x="524.763671875" xlink:href="#DejaVuSans-65"/>
       <use x="586.287109375" xlink:href="#DejaVuSans-74"/>
       <use x="625.49609375" xlink:href="#DejaVuSans-61"/>
       <use x="686.775390625" xlink:href="#DejaVuSans-6c"/>
       <use x="714.55859375" xlink:href="#DejaVuSans-65"/>
       <use x="776.08203125" xlink:href="#DejaVuSans-73"/>
      </g>
     </g>
    </g>
    <g id="xtick_4">
     <g id="line2d_4">
      <g>
       <use style="stroke:#000000;stroke-width:0.5;" x="392.387771875" xlink:href="#m48243eeccc" y="224.987771875"/>
      </g>
     </g>
     <g id="text_3">
      <!-- Bacteroidales -->
      <defs>
       <path d="
M19.6719 34.8125
L19.6719 8.10938
L35.5 8.10938
Q43.4531 8.10938 47.2812 11.4062
Q51.125 14.7031 51.125 21.4844
Q51.125 28.3281 47.2812 31.5625
Q43.4531 34.8125 35.5 34.8125
z

M19.6719 64.7969
L19.6719 42.8281
L34.2812 42.8281
Q41.5 42.8281 45.0312 45.5312
Q48.5781 48.25 48.5781 53.8125
Q48.5781 59.3281 45.0312 62.0625
Q41.5 64.7969 34.2812 64.7969
z

M9.8125 72.9062
L35.0156 72.9062
Q46.2969 72.9062 52.3906 68.2188
Q58.5 63.5312 58.5 54.8906
Q58.5 48.1875 55.375 44.2344
Q52.25 40.2812 46.1875 39.3125
Q53.4688 37.75 57.5 32.7812
Q61.5312 27.8281 61.5312 20.4062
Q61.5312 10.6406 54.8906 5.3125
Q48.25 0 35.9844 0
L9.8125 0
z
" id="DejaVuSans-42"/>
      </defs>
      <g transform="translate(394.722203125 220.987771875)rotate(-90.0)scale(0.0846 -0.0846)">
       <use xlink:href="#DejaVuSans-42"/>
       <use x="68.603515625" xlink:href="#DejaVuSans-61"/>
       <use x="129.8828125" xlink:href="#DejaVuSans-63"/>
       <use x="184.86328125" xlink:href="#DejaVuSans-74"/>
       <use x="224.072265625" xlink:href="#DejaVuSans-65"/>
       <use x="285.595703125" xlink:href="#DejaVuSans-72"/>
       <use x="324.458984375" xlink:href="#DejaVuSans-6f"/>
       <use x="385.640625" xlink:href="#DejaVuSans-69"/>
       <use x="413.423828125" xlink:href="#DejaVuSans-64"/>
       <use x="476.900390625" xlink:href="#DejaVuSans-61"/>
       <use x="538.1796875" xlink:href="#DejaVuSans-6c"/>
       <use x="565.962890625" xlink:href="#DejaVuSans-65"/>
       <use x="627.486328125" xlink:href="#DejaVuSans-73"/>
      </g>
     </g>
    </g>
    <g id="xtick_5">
     <g id="line2d_5">
      <g>
       <use style="stroke:#000000;stroke-width:0.5;" x="448.187771875" xlink:href="#m48243eeccc" y="224.987771875"/>
      </g>
     </g>
     <g id="text_4">
      <!-- Clostridiales -->
      <defs>
       <path d="
M64.4062 67.2812
L64.4062 56.8906
Q59.4219 61.5312 53.7812 63.8125
Q48.1406 66.1094 41.7969 66.1094
Q29.2969 66.1094 22.6562 58.4688
Q16.0156 50.8281 16.0156 36.375
Q16.0156 21.9688 22.6562 14.3281
Q29.2969 6.6875 41.7969 6.6875
Q48.1406 6.6875 53.7812 8.98438
Q59.4219 11.2812 64.4062 15.9219
L64.4062 5.60938
Q59.2344 2.09375 53.4375 0.328125
Q47.6562 -1.42188 41.2188 -1.42188
Q24.6562 -1.42188 15.125 8.70312
Q5.60938 18.8438 5.60938 36.375
Q5.60938 53.9531 15.125 64.0781
Q24.6562 74.2188 41.2188 74.2188
Q47.75 74.2188 53.5312 72.4844
Q59.3281 70.75 64.4062 67.2812" id="DejaVuSans-43"/>
      </defs>
      <g transform="translate(450.522203125 220.987771875)rotate(-90.0)scale(0.0846 -0.0846)">
       <use xlink:href="#DejaVuSans-43"/>
       <use x="69.82421875" xlink:href="#DejaVuSans-6c"/>
       <use x="97.607421875" xlink:href="#DejaVuSans-6f"/>
       <use x="158.7890625" xlink:href="#DejaVuSans-73"/>
       <use x="210.888671875" xlink:href="#DejaVuSans-74"/>
       <use x="250.09765625" xlink:href="#DejaVuSans-72"/>
       <use x="291.2109375" xlink:href="#DejaVuSans-69"/>
       <use x="318.994140625" xlink:href="#DejaVuSans-64"/>
       <use x="382.470703125" xlink:href="#DejaVuSans-69"/>
       <use x="410.25390625" xlink:href="#DejaVuSans-61"/>
       <use x="471.533203125" xlink:href="#DejaVuSans-6c"/>
       <use x="499.31640625" xlink:href="#DejaVuSans-65"/>
       <use x="560.83984375" xlink:href="#DejaVuSans-73"/>
      </g>
     </g>
    </g>
    <g id="xtick_6">
     <g id="line2d_6">
      <g>
       <use style="stroke:#000000;stroke-width:0.5;" x="503.987771875" xlink:href="#m48243eeccc" y="224.987771875"/>
      </g>
     </g>
     <g id="text_5">
      <!-- Desulfovibrionales -->
      <defs>
       <path d="
M19.6719 64.7969
L19.6719 8.10938
L31.5938 8.10938
Q46.6875 8.10938 53.6875 14.9375
Q60.6875 21.7812 60.6875 36.5312
Q60.6875 51.1719 53.6875 57.9844
Q46.6875 64.7969 31.5938 64.7969
z

M9.8125 72.9062
L30.0781 72.9062
Q51.2656 72.9062 61.1719 64.0938
Q71.0938 55.2812 71.0938 36.5312
Q71.0938 17.6719 61.125 8.82812
Q51.1719 0 30.0781 0
L9.8125 0
z
" id="DejaVuSans-44"/>
       <path d="
M8.5 21.5781
L8.5 54.6875
L17.4844 54.6875
L17.4844 21.9219
Q17.4844 14.1562 20.5 10.2656
Q23.5312 6.39062 29.5938 6.39062
Q36.8594 6.39062 41.0781 11.0312
Q45.3125 15.6719 45.3125 23.6875
L45.3125 54.6875
L54.2969 54.6875
L54.2969 0
L45.3125 0
L45.3125 8.40625
Q42.0469 3.42188 37.7188 1
Q33.4062 -1.42188 27.6875 -1.42188
Q18.2656 -1.42188 13.375 4.4375
Q8.5 10.2969 8.5 21.5781
M31.1094 56
z
" id="DejaVuSans-75"/>
       <path d="
M37.1094 75.9844
L37.1094 68.5
L28.5156 68.5
Q23.6875 68.5 21.7969 66.5469
Q19.9219 64.5938 19.9219 59.5156
L19.9219 54.6875
L34.7188 54.6875
L34.7188 47.7031
L19.9219 47.7031
L19.9219 0
L10.8906 0
L10.8906 47.7031
L2.29688 47.7031
L2.29688 54.6875
L10.8906 54.6875
L10.8906 58.5
Q10.8906 67.625 15.1406 71.7969
Q19.3906 75.9844 28.6094 75.9844
z
" id="DejaVuSans-66"/>
       <path d="
M2.98438 54.6875
L12.5 54.6875
L29.5938 8.79688
L46.6875 54.6875
L56.2031 54.6875
L35.6875 0
L23.4844 0
z
" id="DejaVuSans-76"/>
      </defs>
      <g transform="translate(506.322203125 220.987771875)rotate(-90.0)scale(0.0846 -0.0846)">
       <use xlink:href="#DejaVuSans-44"/>
       <use x="77.001953125" xlink:href="#DejaVuSans-65"/>
       <use x="138.525390625" xlink:href="#DejaVuSans-73"/>
       <use x="190.625" xlink:href="#DejaVuSans-75"/>
       <use x="254.00390625" xlink:href="#DejaVuSans-6c"/>
       <use x="281.787109375" xlink:href="#DejaVuSans-66"/>
       <use x="316.9921875" xlink:href="#DejaVuSans-6f"/>
       <use x="378.173828125" xlink:href="#DejaVuSans-76"/>
       <use x="437.353515625" xlink:href="#DejaVuSans-69"/>
       <use x="465.13671875" xlink:href="#DejaVuSans-62"/>
       <use x="528.61328125" xlink:href="#DejaVuSans-72"/>
       <use x="569.7265625" xlink:href="#DejaVuSans-69"/>
       <use x="597.509765625" xlink:href="#DejaVuSans-6f"/>
       <use x="658.69140625" xlink:href="#DejaVuSans-6e"/>
       <use x="722.0703125" xlink:href="#DejaVuSans-61"/>
       <use x="783.349609375" xlink:href="#DejaVuSans-6c"/>
       <use x="811.1328125" xlink:href="#DejaVuSans-65"/>
       <use x="872.65625" xlink:href="#DejaVuSans-73"/>
      </g>
     </g>
    </g>
    <g id="xtick_7">
     <g id="line2d_7">
      <g>
       <use style="stroke:#000000;stroke-width:0.5;" x="559.787771875" xlink:href="#m48243eeccc" y="224.987771875"/>
      </g>
     </g>
     <g id="text_6">
      <!-- Selenomonadales -->
      <defs>
       <path d="
M53.5156 70.5156
L53.5156 60.8906
Q47.9062 63.5781 42.9219 64.8906
Q37.9375 66.2188 33.2969 66.2188
Q25.25 66.2188 20.875 63.0938
Q16.5 59.9688 16.5 54.2031
Q16.5 49.3594 19.4062 46.8906
Q22.3125 44.4375 30.4219 42.9219
L36.375 41.7031
Q47.4062 39.5938 52.6562 34.2969
Q57.9062 29 57.9062 20.125
Q57.9062 9.51562 50.7969 4.04688
Q43.7031 -1.42188 29.9844 -1.42188
Q24.8125 -1.42188 18.9688 -0.25
Q13.1406 0.921875 6.89062 3.21875
L6.89062 13.375
Q12.8906 10.0156 18.6562 8.29688
Q24.4219 6.59375 29.9844 6.59375
Q38.4219 6.59375 43.0156 9.90625
Q47.6094 13.2344 47.6094 19.3906
Q47.6094 24.75 44.3125 27.7812
Q41.0156 30.8125 33.5 32.3281
L27.4844 33.5
Q16.4531 35.6875 11.5156 40.375
Q6.59375 45.0625 6.59375 53.4219
Q6.59375 63.0938 13.4062 68.6562
Q20.2188 74.2188 32.1719 74.2188
Q37.3125 74.2188 42.625 73.2812
Q47.9531 72.3594 53.5156 70.5156" id="DejaVuSans-53"/>
      </defs>
      <g transform="translate(562.122203125 220.987771875)rotate(-90.0)scale(0.0846 -0.0846)">
       <use xlink:href="#DejaVuSans-53"/>
       <use x="63.4765625" xlink:href="#DejaVuSans-65"/>
       <use x="125.0" xlink:href="#DejaVuSans-6c"/>
       <use x="152.783203125" xlink:href="#DejaVuSans-65"/>
       <use x="214.306640625" xlink:href="#DejaVuSans-6e"/>
       <use x="277.685546875" xlink:href="#DejaVuSans-6f"/>
       <use x="338.8671875" xlink:href="#DejaVuSans-6d"/>
       <use x="436.279296875" xlink:href="#DejaVuSans-6f"/>
       <use x="497.4609375" xlink:href="#DejaVuSans-6e"/>
       <use x="560.83984375" xlink:href="#DejaVuSans-61"/>
       <use x="622.119140625" xlink:href="#DejaVuSans-64"/>
       <use x="685.595703125" xlink:href="#DejaVuSans-61"/>
       <use x="746.875" xlink:href="#DejaVuSans-6c"/>
       <use x="774.658203125" xlink:href="#DejaVuSans-65"/>
       <use x="836.181640625" xlink:href="#DejaVuSans-73"/>
      </g>
     </g>
    </g>
    <g id="xtick_8">
     <g id="line2d_8">
      <g>
       <use style="stroke:#000000;stroke-width:0.5;" x="615.587771875" xlink:href="#m48243eeccc" y="224.987771875"/>
      </g>
     </g>
     <g id="text_7">
      <!-- order_rumen bacterium NK4... -->
      <defs>
       <path d="
M9.8125 72.9062
L23.0938 72.9062
L55.4219 11.9219
L55.4219 72.9062
L64.9844 72.9062
L64.9844 0
L51.7031 0
L19.3906 60.9844
L19.3906 0
L9.8125 0
z
" id="DejaVuSans-4e"/>
       <path d="
M9.8125 72.9062
L19.6719 72.9062
L19.6719 42.0938
L52.3906 72.9062
L65.0938 72.9062
L28.9062 38.9219
L67.6719 0
L54.6875 0
L19.6719 35.1094
L19.6719 0
L9.8125 0
z
" id="DejaVuSans-4b"/>
       <path d="
M10.6875 12.4062
L21 12.4062
L21 0
L10.6875 0
z
" id="DejaVuSans-2e"/>
       <path d="
M50.9844 -16.6094
L50.9844 -23.5781
L-0.984375 -23.5781
L-0.984375 -16.6094
z
" id="DejaVuSans-5f"/>
       <path id="DejaVuSans-20"/>
       <path d="
M37.7969 64.3125
L12.8906 25.3906
L37.7969 25.3906
z

M35.2031 72.9062
L47.6094 72.9062
L47.6094 25.3906
L58.0156 25.3906
L58.0156 17.1875
L47.6094 17.1875
L47.6094 0
L37.7969 0
L37.7969 17.1875
L4.89062 17.1875
L4.89062 26.7031
z
" id="DejaVuSans-34"/>
      </defs>
      <g transform="translate(617.80455625 220.987771875)rotate(-90.0)scale(0.0846 -0.0846)">
       <use xlink:href="#DejaVuSans-6f"/>
       <use x="61.181640625" xlink:href="#DejaVuSans-72"/>
       <use x="100.544921875" xlink:href="#DejaVuSans-64"/>
       <use x="164.021484375" xlink:href="#DejaVuSans-65"/>
       <use x="225.544921875" xlink:href="#DejaVuSans-72"/>
       <use x="266.658203125" xlink:href="#DejaVuSans-5f"/>
       <use x="316.658203125" xlink:href="#DejaVuSans-72"/>
       <use x="357.771484375" xlink:href="#DejaVuSans-75"/>
       <use x="421.150390625" xlink:href="#DejaVuSans-6d"/>
       <use x="518.5625" xlink:href="#DejaVuSans-65"/>
       <use x="580.0859375" xlink:href="#DejaVuSans-6e"/>
       <use x="643.46484375" xlink:href="#DejaVuSans-20"/>
       <use x="675.251953125" xlink:href="#DejaVuSans-62"/>
       <use x="738.728515625" xlink:href="#DejaVuSans-61"/>
       <use x="800.0078125" xlink:href="#DejaVuSans-63"/>
       <use x="854.98828125" xlink:href="#DejaVuSans-74"/>
       <use x="894.197265625" xlink:href="#DejaVuSans-65"/>
       <use x="955.720703125" xlink:href="#DejaVuSans-72"/>
       <use x="996.833984375" xlink:href="#DejaVuSans-69"/>
       <use x="1024.6171875" xlink:href="#DejaVuSans-75"/>
       <use x="1087.99609375" xlink:href="#DejaVuSans-6d"/>
       <use x="1185.40820312" xlink:href="#DejaVuSans-20"/>
       <use x="1217.1953125" xlink:href="#DejaVuSans-4e"/>
       <use x="1292.0" xlink:href="#DejaVuSans-4b"/>
       <use x="1357.57617188" xlink:href="#DejaVuSans-34"/>
       <use x="1421.19921875" xlink:href="#DejaVuSans-2e"/>
       <use x="1452.98632812" xlink:href="#DejaVuSans-2e"/>
       <use x="1484.7734375" xlink:href="#DejaVuSans-2e"/>
      </g>
     </g>
    </g>
    <g id="xtick_9">
     <g id="line2d_9">
      <g>
       <use style="stroke:#000000;stroke-width:0.5;" x="671.387771875" xlink:href="#m48243eeccc" y="224.987771875"/>
      </g>
     </g>
     <g id="text_8">
      <!-- unassigned -->
      <defs>
       <path d="
M45.4062 27.9844
Q45.4062 37.75 41.375 43.1094
Q37.3594 48.4844 30.0781 48.4844
Q22.8594 48.4844 18.8281 43.1094
Q14.7969 37.75 14.7969 27.9844
Q14.7969 18.2656 18.8281 12.8906
Q22.8594 7.51562 30.0781 7.51562
Q37.3594 7.51562 41.375 12.8906
Q45.4062 18.2656 45.4062 27.9844
M54.3906 6.78125
Q54.3906 -7.17188 48.1875 -13.9844
Q42 -20.7969 29.2031 -20.7969
Q24.4688 -20.7969 20.2656 -20.0938
Q16.0625 -19.3906 12.1094 -17.9219
L12.1094 -9.1875
Q16.0625 -11.3281 19.9219 -12.3438
Q23.7812 -13.375 27.7812 -13.375
Q36.625 -13.375 41.0156 -8.76562
Q45.4062 -4.15625 45.4062 5.17188
L45.4062 9.625
Q42.625 4.78125 38.2812 2.39062
Q33.9375 0 27.875 0
Q17.8281 0 11.6719 7.65625
Q5.51562 15.3281 5.51562 27.9844
Q5.51562 40.6719 11.6719 48.3281
Q17.8281 56 27.875 56
Q33.9375 56 38.2812 53.6094
Q42.625 51.2188 45.4062 46.3906
L45.4062 54.6875
L54.3906 54.6875
z
" id="DejaVuSans-67"/>
      </defs>
      <g transform="translate(673.722203125 220.987771875)rotate(-90.0)scale(0.0846 -0.0846)">
       <use xlink:href="#DejaVuSans-75"/>
       <use x="63.37890625" xlink:href="#DejaVuSans-6e"/>
       <use x="126.7578125" xlink:href="#DejaVuSans-61"/>
       <use x="188.037109375" xlink:href="#DejaVuSans-73"/>
       <use x="240.13671875" xlink:href="#DejaVuSans-73"/>
       <use x="292.236328125" xlink:href="#DejaVuSans-69"/>
       <use x="320.01953125" xlink:href="#DejaVuSans-67"/>
       <use x="383.49609375" xlink:href="#DejaVuSans-6e"/>
       <use x="446.875" xlink:href="#DejaVuSans-65"/>
       <use x="508.3984375" xlink:href="#DejaVuSans-64"/>
      </g>
     </g>
    </g>
    <g id="xtick_10">
     <g id="line2d_10">
      <defs>
       <path d="
M0 0
L0 -8.46" id="mc770b06d81" style="stroke:#b2b2b2;stroke-width:0.5;"/>
      </defs>
      <g>
       <use style="fill:#b2b2b2;stroke:#b2b2b2;stroke-width:0.5;" x="252.887771875" xlink:href="#mc770b06d81" y="224.987771875"/>
      </g>
     </g>
    </g>
    <g id="xtick_11">
     <g id="line2d_11">
      <g>
       <use style="fill:#b2b2b2;stroke:#b2b2b2;stroke-width:0.5;" x="308.687771875" xlink:href="#mc770b06d81" y="224.987771875"/>
      </g>
     </g>
    </g>
    <g id="xtick_12">
     <g id="line2d_12">
      <g>
       <use style="fill:#b2b2b2;stroke:#b2b2b2;stroke-width:0.5;" x="364.487771875" xlink:href="#mc770b06d81" y="224.987771875"/>
      </g>
     </g>
    </g>
    <g id="xtick_13">
     <g id="line2d_13">
      <g>
       <use style="fill:#b2b2b2;stroke:#b2b2b2;stroke-width:0.5;" x="420.287771875" xlink:href="#mc770b06d81" y="224.987771875"/>
      </g>
     </g>
    </g>
    <g id="xtick_14">
     <g id="line2d_14">
      <g>
       <use style="fill:#b2b2b2;stroke:#b2b2b2;stroke-width:0.5;" x="476.087771875" xlink:href="#mc770b06d81" y="224.987771875"/>
      </g>
     </g>
    </g>
    <g id="xtick_15">
     <g id="line2d_15">
      <g>
       <use style="fill:#b2b2b2;stroke:#b2b2b2;stroke-width:0.5;" x="531.887771875" xlink:href="#mc770b06d81" y="224.987771875"/>
      </g>
     </g>
    </g>
    <g id="xtick_16">
     <g id="line2d_16">
      <g>
       <use style="fill:#b2b2b2;stroke:#b2b2b2;stroke-width:0.5;" x="587.687771875" xlink:href="#mc770b06d81" y="224.987771875"/>
      </g>
     </g>
    </g>
    <g id="xtick_17">
     <g id="line2d_17">
      <g>
       <use style="fill:#b2b2b2;stroke:#b2b2b2;stroke-width:0.5;" x="643.487771875" xlink:href="#mc770b06d81" y="224.987771875"/>
      </g>
     </g>
    </g>
    <g id="text_9">
     <!-- order -->
     <g transform="translate(432.518396875 555.145896875)scale(0.12 -0.12)">
      <use xlink:href="#DejaVuSans-6f"/>
      <use x="61.181640625" xlink:href="#DejaVuSans-72"/>
      <use x="100.544921875" xlink:href="#DejaVuSans-64"/>
      <use x="164.021484375" xlink:href="#DejaVuSans-65"/>
      <use x="225.544921875" xlink:href="#DejaVuSans-72"/>
     </g>
    </g>
   </g>
   <g id="matplotlib.axis_2">
    <g id="ytick_1">
     <g id="line2d_18">
      <g>
       <use style="stroke:#000000;stroke-width:0.5;" x="224.987771875" xlink:href="#m48243eeccc" y="536.027771875"/>
      </g>
     </g>
    </g>
    <g id="ytick_2">
     <g id="line2d_19">
      <g>
       <use style="stroke:#000000;stroke-width:0.5;" x="224.987771875" xlink:href="#m48243eeccc" y="497.147771875"/>
      </g>
     </g>
     <g id="text_10">
      <!-- Acidimicrobiales -->
      <g transform="translate(152.5291875 499.482203125)scale(0.0846 -0.0846)">
       <use xlink:href="#DejaVuSans-41"/>
       <use x="66.658203125" xlink:href="#DejaVuSans-63"/>
       <use x="121.638671875" xlink:href="#DejaVuSans-69"/>
       <use x="149.421875" xlink:href="#DejaVuSans-64"/>
       <use x="212.8984375" xlink:href="#DejaVuSans-69"/>
       <use x="240.681640625" xlink:href="#DejaVuSans-6d"/>
       <use x="338.09375" xlink:href="#DejaVuSans-69"/>
       <use x="365.876953125" xlink:href="#DejaVuSans-63"/>
       <use x="420.857421875" xlink:href="#DejaVuSans-72"/>
       <use x="459.720703125" xlink:href="#DejaVuSans-6f"/>
       <use x="520.90234375" xlink:href="#DejaVuSans-62"/>
       <use x="584.37890625" xlink:href="#DejaVuSans-69"/>
       <use x="612.162109375" xlink:href="#DejaVuSans-61"/>
       <use x="673.44140625" xlink:href="#DejaVuSans-6c"/>
       <use x="701.224609375" xlink:href="#DejaVuSans-65"/>
       <use x="762.748046875" xlink:href="#DejaVuSans-73"/>
      </g>
     </g>
    </g>
    <g id="ytick_3">
     <g id="line2d_20">
      <g>
       <use style="stroke:#000000;stroke-width:0.5;" x="224.987771875" xlink:href="#m48243eeccc" y="458.267771875"/>
      </g>
     </g>
     <g id="text_11">
      <!-- Actinomycetales -->
      <g transform="translate(151.401628125 460.602203125)scale(0.0846 -0.0846)">
       <use xlink:href="#DejaVuSans-41"/>
       <use x="66.658203125" xlink:href="#DejaVuSans-63"/>
       <use x="121.638671875" xlink:href="#DejaVuSans-74"/>
       <use x="160.84765625" xlink:href="#DejaVuSans-69"/>
       <use x="188.630859375" xlink:href="#DejaVuSans-6e"/>
       <use x="252.009765625" xlink:href="#DejaVuSans-6f"/>
       <use x="313.19140625" xlink:href="#DejaVuSans-6d"/>
       <use x="410.603515625" xlink:href="#DejaVuSans-79"/>
       <use x="469.783203125" xlink:href="#DejaVuSans-63"/>
       <use x="524.763671875" xlink:href="#DejaVuSans-65"/>
       <use x="586.287109375" xlink:href="#DejaVuSans-74"/>
       <use x="625.49609375" xlink:href="#DejaVuSans-61"/>
       <use x="686.775390625" xlink:href="#DejaVuSans-6c"/>
       <use x="714.55859375" xlink:href="#DejaVuSans-65"/>
       <use x="776.08203125" xlink:href="#DejaVuSans-73"/>
      </g>
     </g>
    </g>
    <g id="ytick_4">
     <g id="line2d_21">
      <g>
       <use style="stroke:#000000;stroke-width:0.5;" x="224.987771875" xlink:href="#m48243eeccc" y="419.387771875"/>
      </g>
     </g>
     <g id="text_12">
      <!-- Bacteroidales -->
      <g transform="translate(164.73538125 421.722203125)scale(0.0846 -0.0846)">
       <use xlink:href="#DejaVuSans-42"/>
       <use x="68.603515625" xlink:href="#DejaVuSans-61"/>
       <use x="129.8828125" xlink:href="#DejaVuSans-63"/>
       <use x="184.86328125" xlink:href="#DejaVuSans-74"/>
       <use x="224.072265625" xlink:href="#DejaVuSans-65"/>
       <use x="285.595703125" xlink:href="#DejaVuSans-72"/>
       <use x="324.458984375" xlink:href="#DejaVuSans-6f"/>
       <use x="385.640625" xlink:href="#DejaVuSans-69"/>
       <use x="413.423828125" xlink:href="#DejaVuSans-64"/>
       <use x="476.900390625" xlink:href="#DejaVuSans-61"/>
       <use x="538.1796875" xlink:href="#DejaVuSans-6c"/>
       <use x="565.962890625" xlink:href="#DejaVuSans-65"/>
       <use x="627.486328125" xlink:href="#DejaVuSans-73"/>
      </g>
     </g>
    </g>
    <g id="ytick_5">
     <g id="line2d_22">
      <g>
       <use style="stroke:#000000;stroke-width:0.5;" x="224.987771875" xlink:href="#m48243eeccc" y="380.507771875"/>
      </g>
     </g>
     <g id="text_13">
      <!-- Clostridiales -->
      <g transform="translate(170.0202375 382.842203125)scale(0.0846 -0.0846)">
       <use xlink:href="#DejaVuSans-43"/>
       <use x="69.82421875" xlink:href="#DejaVuSans-6c"/>
       <use x="97.607421875" xlink:href="#DejaVuSans-6f"/>
       <use x="158.7890625" xlink:href="#DejaVuSans-73"/>
       <use x="210.888671875" xlink:href="#DejaVuSans-74"/>
       <use x="250.09765625" xlink:href="#DejaVuSans-72"/>
       <use x="291.2109375" xlink:href="#DejaVuSans-69"/>
       <use x="318.994140625" xlink:href="#DejaVuSans-64"/>
       <use x="382.470703125" xlink:href="#DejaVuSans-69"/>
       <use x="410.25390625" xlink:href="#DejaVuSans-61"/>
       <use x="471.533203125" xlink:href="#DejaVuSans-6c"/>
       <use x="499.31640625" xlink:href="#DejaVuSans-65"/>
       <use x="560.83984375" xlink:href="#DejaVuSans-73"/>
      </g>
     </g>
    </g>
    <g id="ytick_6">
     <g id="line2d_23">
      <g>
       <use style="stroke:#000000;stroke-width:0.5;" x="224.987771875" xlink:href="#m48243eeccc" y="341.627771875"/>
      </g>
     </g>
     <g id="text_14">
      <!-- Desulfovibrionales -->
      <g transform="translate(143.9951625 343.962203125)scale(0.0846 -0.0846)">
       <use xlink:href="#DejaVuSans-44"/>
       <use x="77.001953125" xlink:href="#DejaVuSans-65"/>
       <use x="138.525390625" xlink:href="#DejaVuSans-73"/>
       <use x="190.625" xlink:href="#DejaVuSans-75"/>
       <use x="254.00390625" xlink:href="#DejaVuSans-6c"/>
       <use x="281.787109375" xlink:href="#DejaVuSans-66"/>
       <use x="316.9921875" xlink:href="#DejaVuSans-6f"/>
       <use x="378.173828125" xlink:href="#DejaVuSans-76"/>
       <use x="437.353515625" xlink:href="#DejaVuSans-69"/>
       <use x="465.13671875" xlink:href="#DejaVuSans-62"/>
       <use x="528.61328125" xlink:href="#DejaVuSans-72"/>
       <use x="569.7265625" xlink:href="#DejaVuSans-69"/>
       <use x="597.509765625" xlink:href="#DejaVuSans-6f"/>
       <use x="658.69140625" xlink:href="#DejaVuSans-6e"/>
       <use x="722.0703125" xlink:href="#DejaVuSans-61"/>
       <use x="783.349609375" xlink:href="#DejaVuSans-6c"/>
       <use x="811.1328125" xlink:href="#DejaVuSans-65"/>
       <use x="872.65625" xlink:href="#DejaVuSans-73"/>
      </g>
     </g>
    </g>
    <g id="ytick_7">
     <g id="line2d_24">
      <g>
       <use style="stroke:#000000;stroke-width:0.5;" x="224.987771875" xlink:href="#m48243eeccc" y="302.747771875"/>
      </g>
     </g>
     <g id="text_15">
      <!-- Selenomonadales -->
      <g transform="translate(146.806790625 305.082203125)scale(0.0846 -0.0846)">
       <use xlink:href="#DejaVuSans-53"/>
       <use x="63.4765625" xlink:href="#DejaVuSans-65"/>
       <use x="125.0" xlink:href="#DejaVuSans-6c"/>
       <use x="152.783203125" xlink:href="#DejaVuSans-65"/>
       <use x="214.306640625" xlink:href="#DejaVuSans-6e"/>
       <use x="277.685546875" xlink:href="#DejaVuSans-6f"/>
       <use x="338.8671875" xlink:href="#DejaVuSans-6d"/>
       <use x="436.279296875" xlink:href="#DejaVuSans-6f"/>
       <use x="497.4609375" xlink:href="#DejaVuSans-6e"/>
       <use x="560.83984375" xlink:href="#DejaVuSans-61"/>
       <use x="622.119140625" xlink:href="#DejaVuSans-64"/>
       <use x="685.595703125" xlink:href="#DejaVuSans-61"/>
       <use x="746.875" xlink:href="#DejaVuSans-6c"/>
       <use x="774.658203125" xlink:href="#DejaVuSans-65"/>
       <use x="836.181640625" xlink:href="#DejaVuSans-73"/>
      </g>
     </g>
    </g>
    <g id="ytick_8">
     <g id="line2d_25">
      <g>
       <use style="stroke:#000000;stroke-width:0.5;" x="224.987771875" xlink:href="#m48243eeccc" y="263.867771875"/>
      </g>
     </g>
     <g id="text_16">
      <!-- order_rumen bacterium NK4... -->
      <g transform="translate(93.6 266.08455625)scale(0.0846 -0.0846)">
       <use xlink:href="#DejaVuSans-6f"/>
       <use x="61.181640625" xlink:href="#DejaVuSans-72"/>
       <use x="100.544921875" xlink:href="#DejaVuSans-64"/>
       <use x="164.021484375" xlink:href="#DejaVuSans-65"/>
       <use x="225.544921875" xlink:href="#DejaVuSans-72"/>
       <use x="266.658203125" xlink:href="#DejaVuSans-5f"/>
       <use x="316.658203125" xlink:href="#DejaVuSans-72"/>
       <use x="357.771484375" xlink:href="#DejaVuSans-75"/>
       <use x="421.150390625" xlink:href="#DejaVuSans-6d"/>
       <use x="518.5625" xlink:href="#DejaVuSans-65"/>
       <use x="580.0859375" xlink:href="#DejaVuSans-6e"/>
       <use x="643.46484375" xlink:href="#DejaVuSans-20"/>
       <use x="675.251953125" xlink:href="#DejaVuSans-62"/>
       <use x="738.728515625" xlink:href="#DejaVuSans-61"/>
       <use x="800.0078125" xlink:href="#DejaVuSans-63"/>
       <use x="854.98828125" xlink:href="#DejaVuSans-74"/>
       <use x="894.197265625" xlink:href="#DejaVuSans-65"/>
       <use x="955.720703125" xlink:href="#DejaVuSans-72"/>
       <use x="996.833984375" xlink:href="#DejaVuSans-69"/>
       <use x="1024.6171875" xlink:href="#DejaVuSans-75"/>
       <use x="1087.99609375" xlink:href="#DejaVuSans-6d"/>
       <use x="1185.40820312" xlink:href="#DejaVuSans-20"/>
       <use x="1217.1953125" xlink:href="#DejaVuSans-4e"/>
       <use x="1292.0" xlink:href="#DejaVuSans-4b"/>
       <use x="1357.57617188" xlink:href="#DejaVuSans-34"/>
       <use x="1421.19921875" xlink:href="#DejaVuSans-2e"/>
       <use x="1452.98632812" xlink:href="#DejaVuSans-2e"/>
       <use x="1484.7734375" xlink:href="#DejaVuSans-2e"/>
      </g>
     </g>
    </g>
    <g id="ytick_9">
     <g id="line2d_26">
      <g>
       <use style="stroke:#000000;stroke-width:0.5;" x="224.987771875" xlink:href="#m48243eeccc" y="224.987771875"/>
      </g>
     </g>
     <g id="text_17">
      <!-- unassigned -->
      <g transform="translate(174.095578125 227.322203125)scale(0.0846 -0.0846)">
       <use xlink:href="#DejaVuSans-75"/>
       <use x="63.37890625" xlink:href="#DejaVuSans-6e"/>
       <use x="126.7578125" xlink:href="#DejaVuSans-61"/>
       <use x="188.037109375" xlink:href="#DejaVuSans-73"/>
       <use x="240.13671875" xlink:href="#DejaVuSans-73"/>
       <use x="292.236328125" xlink:href="#DejaVuSans-69"/>
       <use x="320.01953125" xlink:href="#DejaVuSans-67"/>
       <use x="383.49609375" xlink:href="#DejaVuSans-6e"/>
       <use x="446.875" xlink:href="#DejaVuSans-65"/>
       <use x="508.3984375" xlink:href="#DejaVuSans-64"/>
      </g>
     </g>
    </g>
    <g id="ytick_10">
     <g id="line2d_27">
      <defs>
       <path d="
M0 0
L-8.46 0" id="m818425c640" style="stroke:#b2b2b2;stroke-width:0.5;"/>
      </defs>
      <g>
       <use style="fill:#b2b2b2;stroke:#b2b2b2;stroke-width:0.5;" x="224.987771875" xlink:href="#m818425c640" y="516.587771875"/>
      </g>
     </g>
    </g>
    <g id="ytick_11">
     <g id="line2d_28">
      <g>
       <use style="fill:#b2b2b2;stroke:#b2b2b2;stroke-width:0.5;" x="224.987771875" xlink:href="#m818425c640" y="477.707771875"/>
      </g>
     </g>
    </g>
    <g id="ytick_12">
     <g id="line2d_29">
      <g>
       <use style="fill:#b2b2b2;stroke:#b2b2b2;stroke-width:0.5;" x="224.987771875" xlink:href="#m818425c640" y="438.827771875"/>
      </g>
     </g>
    </g>
    <g id="ytick_13">
     <g id="line2d_30">
      <g>
       <use style="fill:#b2b2b2;stroke:#b2b2b2;stroke-width:0.5;" x="224.987771875" xlink:href="#m818425c640" y="399.947771875"/>
      </g>
     </g>
    </g>
    <g id="ytick_14">
     <g id="line2d_31">
      <g>
       <use style="fill:#b2b2b2;stroke:#b2b2b2;stroke-width:0.5;" x="224.987771875" xlink:href="#m818425c640" y="361.067771875"/>
      </g>
     </g>
    </g>
    <g id="ytick_15">
     <g id="line2d_32">
      <g>
       <use style="fill:#b2b2b2;stroke:#b2b2b2;stroke-width:0.5;" x="224.987771875" xlink:href="#m818425c640" y="322.187771875"/>
      </g>
     </g>
    </g>
    <g id="ytick_16">
     <g id="line2d_33">
      <g>
       <use style="fill:#b2b2b2;stroke:#b2b2b2;stroke-width:0.5;" x="224.987771875" xlink:href="#m818425c640" y="283.307771875"/>
      </g>
     </g>
    </g>
    <g id="ytick_17">
     <g id="line2d_34">
      <g>
       <use style="fill:#b2b2b2;stroke:#b2b2b2;stroke-width:0.5;" x="224.987771875" xlink:href="#m818425c640" y="244.427771875"/>
      </g>
     </g>
    </g>
   </g>
  </g>
 </g>
</svg>
