<?xml version="1.0" encoding="utf-8" standalone="no"?>
<!DOCTYPE svg PUBLIC "-//W3C//DTD SVG 1.1//EN"
  "http://www.w3.org/Graphics/SVG/1.1/DTD/svg11.dtd">
<!-- Created with matplotlib (http://matplotlib.org/) -->
<svg height="577pt" version="1.1" viewBox="0 0 695 577" width="695pt" xmlns="http://www.w3.org/2000/svg" xmlns:xlink="http://www.w3.org/1999/xlink">
 <defs>
  <style type="text/css">
*{stroke-linecap:butt;stroke-linejoin:round;}
  </style>
 </defs>
 <g id="figure_1">
  <g id="patch_1">
   <path d="
M0 577.352
L695.395 577.352
L695.395 0
L0 0
z
" style="fill:none;"/>
  </g>
  <g id="axes_1">
   <g id="patch_2">
    <path d="
M151.098 462.138
L597.498 462.138
L597.498 151.098
L151.098 151.098
z
" style="fill:none;"/>
   </g>
   <g id="patch_3">
    <path d="
M151.098 151.098
L597.498 151.098" style="fill:none;stroke:#000000;stroke-linecap:square;stroke-linejoin:miter;"/>
   </g>
   <g id="patch_4">
    <path d="
M597.498 462.138
L597.498 151.098" style="fill:none;stroke:#000000;stroke-linecap:square;stroke-linejoin:miter;"/>
   </g>
   <g id="patch_5">
    <path d="
M151.098 462.138
L597.498 462.138" style="fill:none;stroke:#000000;stroke-linecap:square;stroke-linejoin:miter;"/>
   </g>
   <g id="patch_6">
    <path d="
M151.098 462.138
L151.098 151.098" style="fill:none;stroke:#000000;stroke-linecap:square;stroke-linejoin:miter;"/>
   </g>
   <g id="matplotlib.axis_1">
    <g id="xtick_1">
     <g id="line2d_1">
      <defs>
       <path d="
M0 0
L0 0" id="m48243eeccc" style="stroke:#000000;stroke-width:0.5;"/>
      </defs>
      <g>
       <use style="stroke:#000000;stroke-width:0.5;" x="151.0978375" xlink:href="#m48243eeccc" y="151.0978375"/>
      </g>
     </g>
     <g id="text_1">
      <!-- Bacillales -->
      <defs>
       <path d="
M9.42188 75.9844
L18.4062 75.9844
L18.4062 0
L9.42188 0
z
" id="DejaVuSans-6c"/>
       <path d="
M19.6719 34.8125
L19.6719 8.10938
L35.5 8.10938
Q43.4531 8.10938 47.2812 11.4062
Q51.125 14.7031 51.125 21.4844
Q51.125 28.3281 47.2812 31.5625
Q43.4531 34.8125 35.5 34.8125
z

M19.6719 64.7969
L19.6719 42.8281
L34.2812 42.8281
Q41.5 42.8281 45.0312 45.5312
Q48.5781 48.25 48.5781 53.8125
Q48.5781 59.3281 45.0312 62.0625
Q41.5 64.7969 34.2812 64.7969
z

M9.8125 72.9062
L35.0156 72.9062
Q46.2969 72.9062 52.3906 68.2188
Q58.5 63.5312 58.5 54.8906
Q58.5 48.1875 55.375 44.2344
Q52.25 40.2812 46.1875 39.3125
Q53.4688 37.75 57.5 32.7812
Q61.5312 27.8281 61.5312 20.4062
Q61.5312 10.6406 54.8906 5.3125
Q48.25 0 35.9844 0
L9.8125 0
z
" id="DejaVuSans-42"/>
       <path d="
M9.42188 54.6875
L18.4062 54.6875
L18.4062 0
L9.42188 0
z

M9.42188 75.9844
L18.4062 75.9844
L18.4062 64.5938
L9.42188 64.5938
z
" id="DejaVuSans-69"/>
       <path d="
M56.2031 29.5938
L56.2031 25.2031
L14.8906 25.2031
Q15.4844 15.9219 20.4844 11.0625
Q25.4844 6.20312 34.4219 6.20312
Q39.5938 6.20312 44.4531 7.46875
Q49.3125 8.73438 54.1094 11.2812
L54.1094 2.78125
Q49.2656 0.734375 44.1875 -0.34375
Q39.1094 -1.42188 33.8906 -1.42188
Q20.7969 -1.42188 13.1562 6.1875
Q5.51562 13.8125 5.51562 26.8125
Q5.51562 40.2344 12.7656 48.1094
Q20.0156 56 32.3281 56
Q43.3594 56 49.7812 48.8906
Q56.2031 41.7969 56.2031 29.5938
M47.2188 32.2344
Q47.125 39.5938 43.0938 43.9844
Q39.0625 48.3906 32.4219 48.3906
Q24.9062 48.3906 20.3906 44.1406
Q15.875 39.8906 15.1875 32.1719
z
" id="DejaVuSans-65"/>
       <path d="
M48.7812 52.5938
L48.7812 44.1875
Q44.9688 46.2969 41.1406 47.3438
Q37.3125 48.3906 33.4062 48.3906
Q24.6562 48.3906 19.8125 42.8438
Q14.9844 37.3125 14.9844 27.2969
Q14.9844 17.2812 19.8125 11.7344
Q24.6562 6.20312 33.4062 6.20312
Q37.3125 6.20312 41.1406 7.25
Q44.9688 8.29688 48.7812 10.4062
L48.7812 2.09375
Q45.0156 0.34375 40.9844 -0.53125
Q36.9688 -1.42188 32.4219 -1.42188
Q20.0625 -1.42188 12.7812 6.34375
Q5.51562 14.1094 5.51562 27.2969
Q5.51562 40.6719 12.8594 48.3281
Q20.2188 56 33.0156 56
Q37.1562 56 41.1094 55.1406
Q45.0625 54.2969 48.7812 52.5938" id="DejaVuSans-63"/>
       <path d="
M44.2812 53.0781
L44.2812 44.5781
Q40.4844 46.5312 36.375 47.5
Q32.2812 48.4844 27.875 48.4844
Q21.1875 48.4844 17.8438 46.4375
Q14.5 44.3906 14.5 40.2812
Q14.5 37.1562 16.8906 35.375
Q19.2812 33.5938 26.5156 31.9844
L29.5938 31.2969
Q39.1562 29.25 43.1875 25.5156
Q47.2188 21.7812 47.2188 15.0938
Q47.2188 7.46875 41.1875 3.01562
Q35.1562 -1.42188 24.6094 -1.42188
Q20.2188 -1.42188 15.4531 -0.5625
Q10.6875 0.296875 5.42188 2
L5.42188 11.2812
Q10.4062 8.6875 15.2344 7.39062
Q20.0625 6.10938 24.8125 6.10938
Q31.1562 6.10938 34.5625 8.28125
Q37.9844 10.4531 37.9844 14.4062
Q37.9844 18.0625 35.5156 20.0156
Q33.0625 21.9688 24.7031 23.7812
L21.5781 24.5156
Q13.2344 26.2656 9.51562 29.9062
Q5.8125 33.5469 5.8125 39.8906
Q5.8125 47.6094 11.2812 51.7969
Q16.75 56 26.8125 56
Q31.7812 56 36.1719 55.2656
Q40.5781 54.5469 44.2812 53.0781" id="DejaVuSans-73"/>
       <path d="
M34.2812 27.4844
Q23.3906 27.4844 19.1875 25
Q14.9844 22.5156 14.9844 16.5
Q14.9844 11.7188 18.1406 8.90625
Q21.2969 6.10938 26.7031 6.10938
Q34.1875 6.10938 38.7031 11.4062
Q43.2188 16.7031 43.2188 25.4844
L43.2188 27.4844
z

M52.2031 31.2031
L52.2031 0
L43.2188 0
L43.2188 8.29688
Q40.1406 3.32812 35.5469 0.953125
Q30.9531 -1.42188 24.3125 -1.42188
Q15.9219 -1.42188 10.9531 3.29688
Q6 8.01562 6 15.9219
Q6 25.1406 12.1719 29.8281
Q18.3594 34.5156 30.6094 34.5156
L43.2188 34.5156
L43.2188 35.4062
Q43.2188 41.6094 39.1406 45
Q35.0625 48.3906 27.6875 48.3906
Q23 48.3906 18.5469 47.2656
Q14.1094 46.1406 10.0156 43.8906
L10.0156 52.2031
Q14.9375 54.1094 19.5781 55.0469
Q24.2188 56 28.6094 56
Q40.4844 56 46.3438 49.8438
Q52.2031 43.7031 52.2031 31.2031" id="DejaVuSans-61"/>
      </defs>
      <g transform="translate(153.5481625 147.0978375)rotate(-90.0)scale(0.0888 -0.0888)">
       <use xlink:href="#DejaVuSans-42"/>
       <use x="68.603515625" xlink:href="#DejaVuSans-61"/>
       <use x="129.8828125" xlink:href="#DejaVuSans-63"/>
       <use x="184.86328125" xlink:href="#DejaVuSans-69"/>
       <use x="212.646484375" xlink:href="#DejaVuSans-6c"/>
       <use x="240.4296875" xlink:href="#DejaVuSans-6c"/>
       <use x="268.212890625" xlink:href="#DejaVuSans-61"/>
       <use x="329.4921875" xlink:href="#DejaVuSans-6c"/>
       <use x="357.275390625" xlink:href="#DejaVuSans-65"/>
       <use x="418.798828125" xlink:href="#DejaVuSans-73"/>
      </g>
     </g>
    </g>
    <g id="xtick_2">
     <g id="line2d_2">
      <g>
       <use style="stroke:#000000;stroke-width:0.5;" x="597.4978375" xlink:href="#m48243eeccc" y="151.0978375"/>
      </g>
     </g>
     <g id="text_2">
      <!-- Clostridiales -->
      <defs>
       <path d="
M30.6094 48.3906
Q23.3906 48.3906 19.1875 42.75
Q14.9844 37.1094 14.9844 27.2969
Q14.9844 17.4844 19.1562 11.8438
Q23.3438 6.20312 30.6094 6.20312
Q37.7969 6.20312 41.9844 11.8594
Q46.1875 17.5312 46.1875 27.2969
Q46.1875 37.0156 41.9844 42.7031
Q37.7969 48.3906 30.6094 48.3906
M30.6094 56
Q42.3281 56 49.0156 48.375
Q55.7188 40.7656 55.7188 27.2969
Q55.7188 13.875 49.0156 6.21875
Q42.3281 -1.42188 30.6094 -1.42188
Q18.8438 -1.42188 12.1719 6.21875
Q5.51562 13.875 5.51562 27.2969
Q5.51562 40.7656 12.1719 48.375
Q18.8438 56 30.6094 56" id="DejaVuSans-6f"/>
       <path d="
M18.3125 70.2188
L18.3125 54.6875
L36.8125 54.6875
L36.8125 47.7031
L18.3125 47.7031
L18.3125 18.0156
Q18.3125 11.3281 20.1406 9.42188
Q21.9688 7.51562 27.5938 7.51562
L36.8125 7.51562
L36.8125 0
L27.5938 0
Q17.1875 0 13.2344 3.875
Q9.28125 7.76562 9.28125 18.0156
L9.28125 47.7031
L2.6875 47.7031
L2.6875 54.6875
L9.28125 54.6875
L9.28125 70.2188
z
" id="DejaVuSans-74"/>
       <path d="
M45.4062 46.3906
L45.4062 75.9844
L54.3906 75.9844
L54.3906 0
L45.4062 0
L45.4062 8.20312
Q42.5781 3.32812 38.25 0.953125
Q33.9375 -1.42188 27.875 -1.42188
Q17.9688 -1.42188 11.7344 6.48438
Q5.51562 14.4062 5.51562 27.2969
Q5.51562 40.1875 11.7344 48.0938
Q17.9688 56 27.875 56
Q33.9375 56 38.25 53.625
Q42.5781 51.2656 45.4062 46.3906
M14.7969 27.2969
Q14.7969 17.3906 18.875 11.75
Q22.9531 6.10938 30.0781 6.10938
Q37.2031 6.10938 41.2969 11.75
Q45.4062 17.3906 45.4062 27.2969
Q45.4062 37.2031 41.2969 42.8438
Q37.2031 48.4844 30.0781 48.4844
Q22.9531 48.4844 18.875 42.8438
Q14.7969 37.2031 14.7969 27.2969" id="DejaVuSans-64"/>
       <path d="
M41.1094 46.2969
Q39.5938 47.1719 37.8125 47.5781
Q36.0312 48 33.8906 48
Q26.2656 48 22.1875 43.0469
Q18.1094 38.0938 18.1094 28.8125
L18.1094 0
L9.07812 0
L9.07812 54.6875
L18.1094 54.6875
L18.1094 46.1875
Q20.9531 51.1719 25.4844 53.5781
Q30.0312 56 36.5312 56
Q37.4531 56 38.5781 55.875
Q39.7031 55.7656 41.0625 55.5156
z
" id="DejaVuSans-72"/>
       <path d="
M64.4062 67.2812
L64.4062 56.8906
Q59.4219 61.5312 53.7812 63.8125
Q48.1406 66.1094 41.7969 66.1094
Q29.2969 66.1094 22.6562 58.4688
Q16.0156 50.8281 16.0156 36.375
Q16.0156 21.9688 22.6562 14.3281
Q29.2969 6.6875 41.7969 6.6875
Q48.1406 6.6875 53.7812 8.98438
Q59.4219 11.2812 64.4062 15.9219
L64.4062 5.60938
Q59.2344 2.09375 53.4375 0.328125
Q47.6562 -1.42188 41.2188 -1.42188
Q24.6562 -1.42188 15.125 8.70312
Q5.60938 18.8438 5.60938 36.375
Q5.60938 53.9531 15.125 64.0781
Q24.6562 74.2188 41.2188 74.2188
Q47.75 74.2188 53.5312 72.4844
Q59.3281 70.75 64.4062 67.2812" id="DejaVuSans-43"/>
      </defs>
      <g transform="translate(599.9481625 147.0978375)rotate(-90.0)scale(0.0888 -0.0888)">
       <use xlink:href="#DejaVuSans-43"/>
       <use x="69.82421875" xlink:href="#DejaVuSans-6c"/>
       <use x="97.607421875" xlink:href="#DejaVuSans-6f"/>
       <use x="158.7890625" xlink:href="#DejaVuSans-73"/>
       <use x="210.888671875" xlink:href="#DejaVuSans-74"/>
       <use x="250.09765625" xlink:href="#DejaVuSans-72"/>
       <use x="291.2109375" xlink:href="#DejaVuSans-69"/>
       <use x="318.994140625" xlink:href="#DejaVuSans-64"/>
       <use x="382.470703125" xlink:href="#DejaVuSans-69"/>
       <use x="410.25390625" xlink:href="#DejaVuSans-61"/>
       <use x="471.533203125" xlink:href="#DejaVuSans-6c"/>
       <use x="499.31640625" xlink:href="#DejaVuSans-65"/>
       <use x="560.83984375" xlink:href="#DejaVuSans-73"/>
      </g>
     </g>
    </g>
    <g id="xtick_3">
     <g id="line2d_3">
      <defs>
       <path d="
M0 0
L0 -8.88" id="m38aa8d28a6" style="stroke:#b2b2b2;stroke-width:0.5;"/>
      </defs>
      <g>
       <use style="fill:#b2b2b2;stroke:#b2b2b2;stroke-width:0.5;" x="374.2978375" xlink:href="#m38aa8d28a6" y="151.0978375"/>
      </g>
     </g>
    </g>
    <g id="text_3">
     <!-- order -->
     <g transform="translate(358.6284625 481.2559625)scale(0.12 -0.12)">
      <use xlink:href="#DejaVuSans-6f"/>
      <use x="61.181640625" xlink:href="#DejaVuSans-72"/>
      <use x="100.544921875" xlink:href="#DejaVuSans-64"/>
      <use x="164.021484375" xlink:href="#DejaVuSans-65"/>
      <use x="225.544921875" xlink:href="#DejaVuSans-72"/>
     </g>
    </g>
   </g>
   <g id="matplotlib.axis_2">
    <g id="ytick_1">
     <g id="line2d_4">
      <g>
       <use style="stroke:#000000;stroke-width:0.5;" x="151.0978375" xlink:href="#m48243eeccc" y="462.1378375"/>
      </g>
     </g>
     <g id="text_4">
      <!-- Bacillales -->
      <g transform="translate(106.5856125 464.5881625)scale(0.0888 -0.0888)">
       <use xlink:href="#DejaVuSans-42"/>
       <use x="68.603515625" xlink:href="#DejaVuSans-61"/>
       <use x="129.8828125" xlink:href="#DejaVuSans-63"/>
       <use x="184.86328125" xlink:href="#DejaVuSans-69"/>
       <use x="212.646484375" xlink:href="#DejaVuSans-6c"/>
       <use x="240.4296875" xlink:href="#DejaVuSans-6c"/>
       <use x="268.212890625" xlink:href="#DejaVuSans-61"/>
       <use x="329.4921875" xlink:href="#DejaVuSans-6c"/>
       <use x="357.275390625" xlink:href="#DejaVuSans-65"/>
       <use x="418.798828125" xlink:href="#DejaVuSans-73"/>
      </g>
     </g>
    </g>
    <g id="ytick_2">
     <g id="line2d_5">
      <g>
       <use style="stroke:#000000;stroke-width:0.5;" x="151.0978375" xlink:href="#m48243eeccc" y="151.0978375"/>
      </g>
     </g>
     <g id="text_5">
      <!-- Clostridiales -->
      <g transform="translate(93.6 153.5481625)scale(0.0888 -0.0888)">
       <use xlink:href="#DejaVuSans-43"/>
       <use x="69.82421875" xlink:href="#DejaVuSans-6c"/>
       <use x="97.607421875" xlink:href="#DejaVuSans-6f"/>
       <use x="158.7890625" xlink:href="#DejaVuSans-73"/>
       <use x="210.888671875" xlink:href="#DejaVuSans-74"/>
       <use x="250.09765625" xlink:href="#DejaVuSans-72"/>
       <use x="291.2109375" xlink:href="#DejaVuSans-69"/>
       <use x="318.994140625" xlink:href="#DejaVuSans-64"/>
       <use x="382.470703125" xlink:href="#DejaVuSans-69"/>
       <use x="410.25390625" xlink:href="#DejaVuSans-61"/>
       <use x="471.533203125" xlink:href="#DejaVuSans-6c"/>
       <use x="499.31640625" xlink:href="#DejaVuSans-65"/>
       <use x="560.83984375" xlink:href="#DejaVuSans-73"/>
      </g>
     </g>
    </g>
    <g id="ytick_3">
     <g id="line2d_6">
      <defs>
       <path d="
M0 0
L-8.88 0" id="mb186d45007" style="stroke:#b2b2b2;stroke-width:0.5;"/>
      </defs>
      <g>
       <use style="fill:#b2b2b2;stroke:#b2b2b2;stroke-width:0.5;" x="151.0978375" xlink:href="#mb186d45007" y="306.6178375"/>
      </g>
     </g>
    </g>
   </g>
  </g>
 </g>
</svg>
